<svg width="200" height="48" viewBox="0 0 200 48" fill="none" xmlns="http://www.w3.org/2000/svg">
<path d="M82.0268 19.995C82.0268 20.3295 81.9768 20.6374 81.8769 20.9188C81.7813 21.1921 81.6294 21.4418 81.4311 21.6514C81.2334 21.8587 80.9872 22.0207 80.6926 22.1376C80.3978 22.254 80.0583 22.3123 79.6743 22.3125C79.2847 22.3125 78.9426 22.2542 78.648 22.1376C78.3531 22.0207 78.1072 21.8587 77.9101 21.6514C77.7109 21.4424 77.5587 21.1925 77.464 20.9188C77.3638 20.6374 77.3138 20.3295 77.3138 19.995V16.5309H78.5455V19.9472C78.5455 20.1226 78.5731 20.2846 78.6283 20.4333C78.6835 20.5816 78.7611 20.7103 78.861 20.8193C78.962 20.9286 79.0846 21.0155 79.2208 21.0742C79.3594 21.1354 79.5115 21.1659 79.6743 21.1659C79.8374 21.1659 79.9874 21.1354 80.1243 21.0742C80.2612 21.0131 80.3796 20.9281 80.4795 20.8193C80.5795 20.7103 80.657 20.5816 80.7123 20.4333C80.7675 20.2846 80.7952 20.1226 80.7954 19.9472V16.5309H82.0268V19.995Z" fill="white"/>
<path d="M82.912 21.4844C82.9109 21.2897 82.9858 21.1023 83.1205 20.9628C83.1865 20.8967 83.2644 20.845 83.3542 20.8077C83.4432 20.7704 83.5379 20.7518 83.6382 20.7518C83.7377 20.7518 83.8325 20.7704 83.9225 20.8077C84.0115 20.8452 84.089 20.8969 84.1549 20.9628C84.2211 21.0296 84.2725 21.108 84.309 21.1979C84.3459 21.2889 84.3646 21.3862 84.3641 21.4844C84.3641 21.5857 84.3458 21.6811 84.309 21.7709C84.2738 21.8588 84.2214 21.9386 84.155 22.0057C84.0886 22.0728 84.0096 22.1257 83.9225 22.1614C83.8323 22.1986 83.7357 22.2175 83.6382 22.217C83.5379 22.217 83.4432 22.1985 83.3542 22.1614C83.2644 22.1246 83.1865 22.0728 83.1205 22.006C82.9854 21.8667 82.9105 21.6792 82.912 21.4844Z" fill="white"/>
<path d="M89.0301 17.9086C88.93 17.7814 88.7944 17.6871 88.6233 17.6257C88.4678 17.5681 88.3038 17.5372 88.1382 17.5343C88.0451 17.535 87.9524 17.5458 87.8616 17.5665C87.7681 17.5873 87.6778 17.6206 87.5931 17.6657C87.5116 17.7083 87.4414 17.7699 87.3881 17.8452C87.3339 17.9246 87.3061 18.0194 87.3088 18.1158C87.3088 18.2859 87.372 18.4159 87.4983 18.5056C87.6247 18.5963 87.7839 18.6733 87.976 18.7368C88.1812 18.8048 88.3878 18.8686 88.5956 18.928C88.813 18.9905 89.0213 19.0816 89.2151 19.1989C89.4078 19.3168 89.5713 19.4773 89.6932 19.6685C89.8193 19.8649 89.8824 20.1277 89.8824 20.457C89.8822 20.7703 89.8243 21.0436 89.7086 21.2771C89.5981 21.5046 89.4373 21.7035 89.2387 21.8585C89.0338 22.0162 88.8007 22.1325 88.5521 22.2009C88.2836 22.2766 88.0059 22.3141 87.7272 22.3124C87.3638 22.3124 87.027 22.2567 86.7169 22.1453C86.4064 22.0334 86.1169 21.8529 85.8485 21.6036L86.7247 20.6323C86.8495 20.801 87.0134 20.9364 87.2021 21.0264C87.3877 21.1182 87.5917 21.1659 87.7984 21.1659C87.8979 21.1659 87.9992 21.1539 88.1024 21.1298C88.2047 21.1059 88.2966 21.0702 88.378 21.0225C88.4597 20.9748 88.5256 20.9138 88.5759 20.8394C88.6258 20.7648 88.6507 20.6773 88.6507 20.5767C88.6507 20.4067 88.5862 20.2726 88.4573 20.1744C88.3284 20.0762 88.1665 19.9925 87.9718 19.9234C87.7769 19.8545 87.5665 19.7855 87.3407 19.7166C87.1195 19.65 86.9072 19.5564 86.7086 19.4379C86.5148 19.3222 86.3491 19.1643 86.2234 18.9758C86.0945 18.7846 86.03 18.5324 86.03 18.2192C86.03 17.917 86.0892 17.6516 86.2076 17.4231C86.3258 17.1949 86.4837 17.0038 86.6812 16.8499C86.8854 16.6924 87.1169 16.5749 87.3639 16.5032C87.6227 16.4262 87.8912 16.3874 88.1611 16.3878C88.477 16.3878 88.7824 16.433 89.0775 16.5234C89.3727 16.6141 89.6447 16.7689 89.8743 16.977L89.0301 17.9086Z" fill="white"/>
<path d="M90.7195 21.4844C90.7195 21.3838 90.7379 21.2883 90.7746 21.1979C90.8116 21.1078 90.863 21.0294 90.9287 20.9628C90.9945 20.8967 91.0722 20.845 91.1618 20.8077C91.2514 20.7704 91.3461 20.7518 91.4458 20.7518C91.5455 20.7518 91.6404 20.7704 91.7304 20.8077C91.8194 20.8452 91.8968 20.8969 91.9628 20.9628C92.0288 21.0296 92.0803 21.108 92.1172 21.1979C92.1535 21.2883 92.1718 21.3838 92.172 21.4844C92.1718 21.5857 92.1535 21.6811 92.1172 21.7709C92.0821 21.8589 92.0297 21.9388 91.9632 22.0059C91.8968 22.073 91.8176 22.1259 91.7304 22.1614C91.6401 22.1987 91.5434 22.2176 91.4458 22.217C91.3484 22.2175 91.2519 22.1986 91.1618 22.1614C91.0745 22.1259 90.9953 22.0731 90.9288 22.006C90.8622 21.9389 90.8098 21.8589 90.7746 21.7709C90.7381 21.6811 90.7197 21.5857 90.7195 21.4844Z" fill="white"/>
<path d="M100.595 17.9962C100.475 17.8484 100.322 17.731 100.148 17.6535C99.9725 17.5741 99.7685 17.5344 99.5367 17.5342C99.3052 17.5342 99.0909 17.5794 98.8936 17.6698C98.6984 17.7586 98.5237 17.8874 98.3804 18.0479C98.2314 18.2165 98.1161 18.4125 98.0407 18.6251C97.9576 18.8575 97.9162 19.1029 97.9185 19.3499C97.9185 19.6155 97.9592 19.8584 98.0407 20.0786C98.1167 20.2889 98.2306 20.4833 98.3765 20.6519C98.5157 20.8118 98.6864 20.9406 98.8778 21.0301C99.072 21.1209 99.2837 21.1672 99.4977 21.1657C99.75 21.1657 99.9736 21.1126 100.168 21.0064C100.363 20.9006 100.529 20.7472 100.65 20.5602L101.676 21.3328C101.45 21.6588 101.138 21.9152 100.776 22.0736C100.423 22.231 100.041 22.3123 99.6553 22.3123C99.2184 22.3123 98.8159 22.2432 98.4478 22.1051C98.0925 21.9751 97.7674 21.7731 97.4923 21.5117C97.2242 21.2546 97.0148 20.9428 96.8644 20.5765C96.7146 20.2101 96.6397 19.8013 96.6397 19.3499C96.6397 18.899 96.7146 18.4902 96.8644 18.1234C97.006 17.7704 97.22 17.4517 97.4923 17.1882C97.7674 16.9267 98.0925 16.7248 98.4478 16.5947C98.8159 16.4566 99.2184 16.3876 99.6553 16.3876C99.8135 16.3876 99.9779 16.4022 100.148 16.4315C100.321 16.4612 100.491 16.5079 100.654 16.571C100.823 16.6361 100.983 16.7217 101.132 16.8259C101.287 16.9346 101.425 17.066 101.542 17.2158L100.595 17.9962Z" fill="white"/>
<path d="M103.246 16.531H107.043V17.6776H104.477V18.7292H106.901V19.8754H104.477V21.0226H107.185V22.1692H103.246V16.531Z" fill="white"/>
<path d="M109.105 16.531H110.779L113.154 20.4487H113.17V16.531H114.402V22.1692H112.791L110.352 18.1559H110.336V22.1692H109.105V16.531Z" fill="white"/>
<path d="M117.435 17.6298H115.841V16.531H120.261V17.6298H118.666V22.1692H117.435V17.6298Z" fill="white"/>
<path d="M121.728 16.531H125.525V17.6776H122.959V18.7292H125.383V19.8754H122.959V21.0226H125.667V22.1692H121.728V16.531Z" fill="white"/>
<path d="M128.739 18.8648H129.465C129.576 18.8646 129.693 18.8604 129.816 18.8524C129.94 18.8448 130.052 18.821 130.152 18.7809C130.252 18.741 130.335 18.6786 130.401 18.5936C130.467 18.5086 130.499 18.3893 130.499 18.2356C130.499 18.0925 130.47 17.9783 130.413 17.8932C130.357 17.81 130.281 17.7427 130.192 17.6977C130.095 17.6506 129.991 17.6196 129.884 17.606C129.771 17.5906 129.658 17.5827 129.544 17.5823H128.739V18.8648ZM127.508 16.5313H129.671C129.955 16.5313 130.225 16.5593 130.479 16.6152C130.719 16.6643 130.947 16.7586 131.151 16.8932C131.345 17.0267 131.503 17.2078 131.608 17.4194C131.722 17.6396 131.778 17.9142 131.778 18.243C131.778 18.6413 131.676 18.9798 131.471 19.2586C131.265 19.5376 130.965 19.7142 130.571 19.7886L131.992 22.1692H130.515L129.347 19.9157H128.739V22.1692H127.508V16.5313Z" fill="white"/>
<path d="M136.285 17.9086C136.184 17.7814 136.049 17.6871 135.878 17.6257C135.722 17.5681 135.558 17.5372 135.393 17.5344C135.3 17.535 135.207 17.5458 135.116 17.5666C135.023 17.5873 134.932 17.6207 134.848 17.6657C134.766 17.7083 134.696 17.7698 134.643 17.8452C134.589 17.9247 134.561 18.0195 134.564 18.1158C134.564 18.286 134.627 18.4159 134.753 18.5057C134.88 18.5963 135.039 18.6733 135.23 18.7369C135.436 18.8048 135.643 18.8685 135.851 18.9281C136.068 18.9906 136.276 19.0816 136.47 19.1989C136.663 19.3164 136.826 19.4771 136.948 19.6685C137.074 19.8649 137.137 20.1277 137.137 20.457C137.137 20.7703 137.079 21.0436 136.963 21.2771C136.853 21.5046 136.692 21.7034 136.494 21.8585C136.289 22.0162 136.056 22.1325 135.807 22.2009C135.539 22.2762 135.261 22.3137 134.982 22.3125C134.619 22.3125 134.282 22.2568 133.972 22.1453C133.661 22.0335 133.372 21.8529 133.103 21.6036L133.979 20.6323C134.104 20.8011 134.269 20.9365 134.457 21.0264C134.736 21.1655 135.054 21.2021 135.357 21.1298C135.46 21.106 135.552 21.0702 135.634 21.0225C135.715 20.9748 135.781 20.9138 135.831 20.8394C135.881 20.7649 135.906 20.6773 135.906 20.5767C135.906 20.4067 135.841 20.2727 135.712 20.1745C135.583 20.0762 135.421 19.9926 135.227 19.9234C135.032 19.8545 134.821 19.7855 134.595 19.7166C134.369 19.6475 134.159 19.5546 133.964 19.4379C133.77 19.3222 133.604 19.1644 133.479 18.9759C133.349 18.7847 133.285 18.5324 133.284 18.2192C133.284 17.917 133.344 17.6516 133.462 17.4232C133.577 17.1994 133.739 17.0037 133.937 16.8499C134.141 16.6924 134.372 16.5749 134.619 16.5032C134.878 16.4262 135.147 16.3874 135.417 16.3878C135.732 16.3878 136.037 16.433 136.332 16.5234C136.628 16.6135 136.9 16.7684 137.129 16.977L136.285 17.9086Z" fill="white"/>
<path d="M141.858 16.531H145.607V17.6776H143.089V18.8245H145.418V19.971H143.089V22.1692H141.858V16.531Z" fill="white"/>
<path d="M148.057 19.3499C148.057 19.6155 148.097 19.8584 148.179 20.0786C148.256 20.292 148.375 20.4871 148.53 20.6519C148.685 20.8158 148.872 20.9447 149.079 21.0301C149.292 21.1207 149.53 21.1659 149.793 21.1657C150.056 21.1657 150.294 21.1205 150.507 21.0301C150.715 20.9448 150.902 20.8159 151.057 20.6519C151.211 20.487 151.331 20.2919 151.407 20.0786C151.489 19.8584 151.53 19.6155 151.53 19.3499C151.53 19.0898 151.489 18.8482 151.407 18.6251C151.331 18.4104 151.212 18.2139 151.057 18.0479C150.902 17.8847 150.715 17.7559 150.507 17.6698C150.294 17.5796 150.056 17.5344 149.793 17.5342C149.53 17.5342 149.292 17.5794 149.079 17.6698C148.872 17.756 148.685 17.8848 148.53 18.0479C148.375 18.2139 148.255 18.4104 148.179 18.6251C148.096 18.8575 148.054 19.1029 148.057 19.3499ZM146.778 19.3499C146.778 18.899 146.853 18.4902 147.003 18.1234C147.144 17.7705 147.358 17.4518 147.63 17.1882C147.905 16.9267 148.23 16.7247 148.586 16.5947C148.954 16.4566 149.356 16.3876 149.793 16.3876C150.23 16.3876 150.632 16.4566 151.001 16.5947C151.356 16.7248 151.681 16.9267 151.956 17.1882C152.229 17.4518 152.443 17.7705 152.584 18.1234C152.734 18.4902 152.809 18.899 152.809 19.3499C152.809 19.8013 152.734 20.2101 152.584 20.5765C152.434 20.9428 152.225 21.2546 151.956 21.5117C151.681 21.7731 151.356 21.9751 151.001 22.1051C150.632 22.2432 150.23 22.3123 149.793 22.3123C149.357 22.3123 148.954 22.2432 148.586 22.1051C148.23 21.9751 147.905 21.7732 147.63 21.5117C147.362 21.2546 147.153 20.9428 147.003 20.5765C146.852 20.2101 146.777 19.8013 146.778 19.3499Z" fill="white"/>
<path d="M155.348 18.8648H156.074C156.185 18.8646 156.301 18.8604 156.425 18.8524C156.549 18.8448 156.661 18.821 156.761 18.7809C156.861 18.741 156.944 18.6786 157.009 18.5936C157.075 18.5086 157.108 18.3893 157.108 18.2356C157.108 18.0925 157.079 17.9783 157.021 17.8932C156.965 17.8099 156.889 17.7426 156.8 17.6977C156.703 17.6506 156.599 17.6197 156.492 17.606C156.38 17.5906 156.266 17.5827 156.153 17.5823H155.348V18.8648ZM154.116 16.5313H156.279C156.563 16.5313 156.833 16.5593 157.088 16.6152C157.343 16.6707 157.567 16.7634 157.759 16.8932C157.954 17.0265 158.111 17.2076 158.217 17.4194C158.33 17.6396 158.387 17.9142 158.387 18.243C158.387 18.6413 158.284 18.9798 158.079 19.2586C157.874 19.5376 157.574 19.7142 157.179 19.7886L158.6 22.1692H157.124L155.955 19.9157H155.348V22.1692H154.116V16.5313Z" fill="white"/>
<path d="M164.22 21.0226H164.86C165.144 21.0226 165.408 20.9933 165.653 20.9348C165.898 20.8762 166.11 20.7795 166.289 20.6444C166.467 20.5089 166.608 20.3309 166.711 20.1105C166.813 19.8902 166.865 19.6209 166.865 19.3024C166.865 19.0264 166.813 18.7862 166.711 18.5818C166.613 18.3834 166.471 18.2102 166.296 18.0759C166.113 17.9388 165.905 17.8376 165.685 17.7773C165.444 17.71 165.196 17.6764 164.947 17.6775H164.22V21.0226ZM162.989 16.5309H164.836C165.283 16.5309 165.708 16.5814 166.111 16.6822C166.513 16.7832 166.865 16.9464 167.165 17.1719C167.465 17.3975 167.703 17.6908 167.879 18.0518C168.055 18.4127 168.143 18.8508 168.144 19.3661C168.144 19.8227 168.058 20.2248 167.887 20.5725C167.723 20.9117 167.487 21.2106 167.196 21.4486C166.898 21.6897 166.558 21.8719 166.194 21.9857C165.808 22.1094 165.406 22.1712 165.002 22.1691H162.989V16.5309Z" fill="white"/>
<path d="M169.672 16.531H170.904V22.1692H169.672V16.531Z" fill="white"/>
<path d="M175.901 17.9086C175.801 17.7814 175.666 17.6871 175.495 17.6257C175.339 17.5681 175.175 17.5372 175.009 17.5343C174.92 17.5343 174.827 17.5451 174.733 17.5665C174.639 17.5873 174.549 17.6206 174.465 17.6657C174.383 17.7083 174.313 17.7698 174.259 17.8452C174.207 17.9196 174.18 18.0097 174.181 18.1158C174.18 18.2859 174.244 18.4159 174.37 18.5056C174.496 18.5963 174.655 18.6733 174.847 18.7368C175.052 18.8047 175.259 18.8685 175.467 18.928C175.684 18.9905 175.893 19.0816 176.087 19.1989C176.279 19.3168 176.443 19.4774 176.564 19.6685C176.691 19.8649 176.754 20.1277 176.754 20.457C176.754 20.7703 176.696 21.0436 176.58 21.2771C176.47 21.5045 176.309 21.7034 176.111 21.8585C175.906 22.0163 175.672 22.1326 175.423 22.2009C175.155 22.2766 174.877 22.3141 174.598 22.3124C174.236 22.3124 173.899 22.2567 173.588 22.1453C173.278 22.0334 172.988 21.8529 172.72 21.6036L173.596 20.6323C173.721 20.801 173.885 20.9364 174.074 21.0264C174.353 21.1654 174.671 21.202 174.974 21.1298C175.076 21.1059 175.168 21.0702 175.25 21.0225C175.332 20.9748 175.397 20.9138 175.447 20.8394C175.497 20.7648 175.522 20.6773 175.523 20.5767C175.523 20.4067 175.458 20.2726 175.329 20.1744C175.2 20.0762 175.038 19.9925 174.843 19.9234C174.634 19.8498 174.424 19.7809 174.212 19.7166C173.991 19.6499 173.779 19.5563 173.58 19.4379C173.386 19.3222 173.221 19.1644 173.095 18.9758C172.966 18.7846 172.901 18.5324 172.901 18.2192C172.901 17.917 172.961 17.6516 173.079 17.4231C173.197 17.1949 173.355 17.0038 173.553 16.8499C173.757 16.6924 173.989 16.5748 174.236 16.5032C174.495 16.4262 174.763 16.3874 175.033 16.3878C175.343 16.3869 175.652 16.4326 175.949 16.5234C176.244 16.6135 176.517 16.7684 176.746 16.977L175.901 17.9086Z" fill="white"/>
<path d="M178.44 16.531H182.237V17.6776H179.671V18.7292H182.095V19.8754H179.671V21.0226H182.379V22.1692H178.44V16.531Z" fill="white"/>
<path d="M186.402 18.1715L185.723 19.9235H187.088L186.402 18.1715ZM185.928 16.5313H186.946L189.377 22.1692H187.988L187.507 20.9752H185.336L184.87 22.1692H183.513L185.928 16.5313Z" fill="white"/>
<path d="M193.356 17.9086C193.256 17.7814 193.12 17.6871 192.949 17.6257C192.793 17.5681 192.629 17.5372 192.464 17.5343C192.374 17.5343 192.282 17.5451 192.187 17.5665C192.094 17.5873 192.004 17.6206 191.919 17.6657C191.837 17.7083 191.767 17.7698 191.714 17.8452C191.661 17.9196 191.635 18.0097 191.635 18.1158C191.635 18.2859 191.698 18.4159 191.824 18.5056C191.95 18.5963 192.11 18.6733 192.302 18.7368C192.507 18.8047 192.713 18.8685 192.921 18.928C193.139 18.9905 193.347 19.0816 193.541 19.1989C193.734 19.3168 193.897 19.4774 194.019 19.6685C194.145 19.8649 194.208 20.1277 194.208 20.457C194.208 20.7703 194.15 21.0436 194.035 21.2771C193.924 21.5045 193.763 21.7034 193.565 21.8585C193.36 22.0163 193.127 22.1326 192.878 22.2009C192.609 22.2766 192.332 22.3141 192.053 22.3124C191.69 22.3124 191.353 22.2567 191.043 22.1453C190.732 22.0334 190.443 21.8529 190.174 21.6036L191.051 20.6323C191.175 20.801 191.339 20.9364 191.528 21.0264C191.807 21.1654 192.125 21.202 192.428 21.1298C192.531 21.1059 192.623 21.0702 192.704 21.0225C192.786 20.9748 192.852 20.9138 192.902 20.8394C192.952 20.7648 192.977 20.6773 192.977 20.5767C192.977 20.4067 192.912 20.2726 192.783 20.1744C192.654 20.0762 192.492 19.9925 192.298 19.9234C192.103 19.8545 191.893 19.7855 191.666 19.7166C191.445 19.6499 191.233 19.5563 191.035 19.4379C190.841 19.3222 190.675 19.1644 190.549 18.9758C190.42 18.7846 190.356 18.5324 190.356 18.2192C190.356 17.917 190.415 17.6516 190.534 17.4231C190.652 17.1949 190.81 17.0038 191.007 16.8499C191.211 16.6924 191.443 16.5748 191.69 16.5032C191.949 16.4262 192.218 16.3874 192.487 16.3878C192.798 16.3869 193.106 16.4326 193.403 16.5234C193.699 16.6135 193.971 16.7684 194.2 16.977L193.356 17.9086Z" fill="white"/>
<path d="M195.894 16.531H199.691V17.6776H197.126V18.7292H199.549V19.8754H197.126V21.0226H199.834V22.1692H195.894V16.531Z" fill="white"/>
<path d="M80.9692 27.1539C80.8491 27.0061 80.6963 26.8887 80.523 26.8112C80.3466 26.7319 80.1427 26.6921 79.9112 26.6919C79.6796 26.6919 79.4652 26.7371 79.2681 26.8275C79.073 26.9163 78.8982 27.0451 78.755 27.2056C78.606 27.3742 78.4906 27.5702 78.4152 27.7828C78.3322 28.0152 78.2908 28.2606 78.293 28.5076C78.293 28.7732 78.3338 29.0161 78.4152 29.2364C78.4969 29.4568 78.6086 29.6479 78.7505 29.8096C78.8896 29.9695 79.0604 30.0983 79.2517 30.1878C79.4459 30.2786 79.6576 30.3249 79.8716 30.3234C80.1245 30.3234 80.3481 30.2703 80.5424 30.1641C80.7375 30.0584 80.9033 29.905 81.0243 29.7179L82.0506 30.4905C81.8239 30.8164 81.5123 31.0727 81.1503 31.2313C80.7974 31.3887 80.4157 31.4699 80.0299 31.47C79.5928 31.47 79.1902 31.4009 78.8223 31.2628C78.4669 31.1329 78.1415 30.9309 77.8663 30.6694C77.5987 30.4123 77.3896 30.1006 77.239 29.7342C77.089 29.3678 77.014 28.959 77.014 28.5076C77.014 28.0567 77.089 27.6479 77.239 27.2811C77.3803 26.9281 77.5941 26.6093 77.8663 26.3456C78.1415 26.0842 78.4669 25.8823 78.8223 25.7524C79.1905 25.6144 79.593 25.5453 80.0299 25.5453C80.1876 25.5453 80.352 25.5599 80.523 25.5892C80.6956 25.6187 80.8648 25.6655 81.0282 25.7287C81.1973 25.7935 81.3579 25.8791 81.5062 25.9836C81.661 26.0927 81.7992 26.2241 81.9162 26.3735L80.9692 27.1539Z" fill="white"/>
<path d="M83.995 28.5076C83.995 28.7732 84.0358 29.0161 84.1172 29.2364C84.1942 29.4497 84.3138 29.6448 84.4686 29.8096C84.6228 29.9735 84.8098 30.1024 85.0172 30.1878C85.2304 30.2784 85.4686 30.3236 85.7318 30.3234C85.9949 30.3234 86.2329 30.2782 86.4458 30.1878C86.653 30.1016 86.8401 29.9728 86.9951 29.8096C87.1491 29.6442 87.2684 29.4493 87.3461 29.2364C87.4298 29.0028 87.4712 28.756 87.4686 28.5076C87.4686 28.2475 87.4278 28.0059 87.3461 27.7828C87.2689 27.5685 87.1495 27.3722 86.9951 27.2056C86.8401 27.0424 86.653 26.9136 86.4458 26.8275C86.2329 26.7373 85.9949 26.6921 85.7318 26.6919C85.4686 26.6919 85.2304 26.7371 85.0172 26.8275C84.8103 26.9137 84.6234 27.0425 84.4686 27.2056C84.3133 27.3716 84.1937 27.5681 84.1172 27.7828C84.0342 28.0152 83.9928 28.2606 83.995 28.5076ZM82.7163 28.5076C82.7163 28.0567 82.7912 27.6479 82.941 27.2811C83.0821 26.9279 83.2962 26.6091 83.5689 26.3459C83.8437 26.0845 84.1687 25.8826 84.5237 25.7524C84.8918 25.6144 85.2945 25.5453 85.7318 25.5453C86.1683 25.5453 86.5708 25.6144 86.9393 25.7524C87.2946 25.8825 87.6197 26.0844 87.8948 26.3459C88.1632 26.6032 88.3724 26.9149 88.5224 27.2811C88.6722 27.6479 88.7471 28.0567 88.7471 28.5076C88.7471 28.959 88.6722 29.3678 88.5224 29.7342C88.3724 30.1006 88.1632 30.4123 87.8948 30.6694C87.6197 30.9308 87.2946 31.1328 86.9393 31.2628C86.5708 31.4009 86.1683 31.47 85.7318 31.47C85.2947 31.47 84.892 31.4009 84.5237 31.2628C84.1687 31.1327 83.8437 30.9308 83.5689 30.6694C83.3003 30.4123 83.091 30.1006 82.941 29.7342C82.7912 29.3678 82.7163 28.959 82.7163 28.5076Z" fill="white"/>
<path d="M90.0858 25.6885H91.7591L94.1358 29.6062H94.1512V25.6885H95.3826V31.3267H93.7725L91.3329 27.3134H91.3175V31.3267H90.0858V25.6885Z" fill="white"/>
<path d="M98.0529 26.7872H96.4583V25.6885H100.879V26.7872H99.2843V31.3267H98.0529V26.7872Z" fill="white"/>
<path d="M103.191 28.0222H103.917C104.027 28.022 104.145 28.0179 104.268 28.0099C104.392 28.0023 104.503 27.9785 104.603 27.9383C104.703 27.8985 104.786 27.836 104.852 27.751C104.918 27.6661 104.951 27.5467 104.951 27.393C104.951 27.25 104.922 27.1358 104.864 27.0506C104.806 26.9659 104.732 26.9007 104.643 26.8552C104.546 26.8081 104.442 26.7771 104.335 26.7635C104.219 26.7477 104.106 26.7398 103.995 26.7398H103.191V28.0222ZM101.959 25.6888H104.122C104.406 25.6888 104.676 25.7168 104.931 25.7727C105.186 25.8282 105.41 25.9209 105.602 26.0507C105.797 26.1841 105.954 26.3652 106.06 26.5768C106.173 26.7971 106.23 27.0717 106.23 27.4005C106.23 27.7987 106.127 28.1372 105.922 28.416C105.717 28.695 105.417 28.8717 105.022 28.9461L106.443 31.3267H104.967L103.798 29.0732H103.191V31.3267H101.959V25.6888Z" fill="white"/>
<path d="M108.478 28.5076C108.478 28.7732 108.518 29.0161 108.6 29.2364C108.677 29.4497 108.796 29.6448 108.951 29.8096C109.106 29.9728 109.293 30.1016 109.5 30.1878C109.713 30.2784 109.951 30.3236 110.214 30.3234C110.477 30.3234 110.715 30.2782 110.929 30.1878C111.136 30.102 111.323 29.9731 111.478 29.8096C111.632 29.6448 111.752 29.4497 111.829 29.2364C111.912 29.0028 111.954 28.756 111.951 28.5076C111.951 28.2475 111.91 28.0059 111.829 27.7828C111.752 27.5681 111.633 27.3716 111.478 27.2056C111.323 27.0425 111.136 26.9137 110.929 26.8275C110.715 26.7373 110.477 26.6921 110.214 26.6919C109.951 26.6919 109.713 26.7371 109.5 26.8275C109.293 26.9137 109.106 27.0425 108.951 27.2056C108.796 27.3716 108.676 27.5681 108.6 27.7828C108.517 28.0152 108.475 28.2606 108.478 28.5076ZM107.199 28.5076C107.199 28.0567 107.274 27.6479 107.424 27.2811C107.565 26.9282 107.779 26.6094 108.051 26.3459C108.327 26.0844 108.652 25.8825 109.007 25.7524C109.375 25.6144 109.778 25.5453 110.214 25.5453C110.651 25.5453 111.054 25.6144 111.423 25.7524C111.778 25.8826 112.103 26.0845 112.377 26.3459C112.65 26.6092 112.864 26.928 113.005 27.2811C113.155 27.6479 113.23 28.0567 113.23 28.5076C113.23 28.959 113.155 29.3678 113.005 29.7342C112.864 30.0876 112.65 30.4064 112.377 30.6694C112.103 30.9308 111.778 31.1327 111.423 31.2628C111.054 31.4009 110.651 31.47 110.214 31.47C109.778 31.47 109.375 31.4009 109.007 31.2628C108.652 31.1328 108.327 30.9308 108.051 30.6694C107.783 30.4123 107.574 30.1006 107.424 29.7342C107.274 29.3678 107.199 28.959 107.199 28.5076Z" fill="white"/>
<path d="M114.592 25.6885H115.824V30.1801H118.105V31.3267H114.592V25.6885Z" fill="white"/>
<path d="M124.855 27.329L124.176 29.081H125.541L124.855 27.329ZM124.381 25.6888H125.399L127.831 31.3267H126.441L125.96 30.1326H123.789L123.323 31.3267H121.966L124.381 25.6888Z" fill="white"/>
<path d="M128.69 25.6885H130.363L132.739 29.6062H132.755V25.6885H133.987V31.3267H132.376L129.937 27.3134H129.921V31.3267H128.69V25.6885Z" fill="white"/>
<path d="M136.86 30.18H137.499C137.783 30.18 138.048 30.1508 138.293 30.0922C138.538 30.0337 138.75 29.9369 138.928 29.8019C139.11 29.6618 139.256 29.4784 139.35 29.2679C139.453 29.0477 139.505 28.7783 139.505 28.4599C139.505 28.1839 139.453 27.9437 139.35 27.7393C139.253 27.5406 139.111 27.3674 138.937 27.2333C138.753 27.0962 138.545 26.995 138.324 26.9348C138.084 26.8674 137.836 26.8338 137.586 26.835H136.86V30.18ZM135.628 25.6884H137.476C137.923 25.6884 138.348 25.7388 138.75 25.8396C139.154 25.9406 139.505 26.1039 139.804 26.3293C140.104 26.555 140.343 26.8483 140.519 27.2093C140.695 27.5702 140.783 28.0083 140.783 28.5236C140.783 28.9802 140.698 29.3823 140.527 29.73C140.363 30.0694 140.127 30.3685 139.836 30.606C139.538 30.8466 139.198 31.0288 138.833 31.1432C138.448 31.2668 138.046 31.3287 137.641 31.3266H135.628V25.6884Z" fill="white"/>
<path d="M146.609 28.0775H147.429C147.54 28.0775 147.647 28.067 147.749 28.046C147.852 28.0243 147.944 27.9883 148.026 27.938C148.107 27.8877 148.173 27.8187 148.224 27.7309C148.273 27.6435 148.298 27.5334 148.298 27.4005C148.298 27.257 148.265 27.1416 148.199 27.0542C148.133 26.9665 148.046 26.8967 147.947 26.851C147.838 26.8017 147.722 26.7708 147.603 26.7593C147.483 26.7469 147.361 26.7403 147.24 26.7394H146.609V28.0775ZM145.377 25.6885H147.454C147.743 25.6885 148.016 25.7149 148.274 25.7678C148.532 25.8211 148.757 25.9128 148.949 26.0429C149.144 26.1761 149.301 26.3569 149.407 26.5684C149.52 26.7886 149.577 27.066 149.577 27.4005C149.577 27.73 149.524 28.0061 149.419 28.2287C149.314 28.4518 149.169 28.6297 148.984 28.7623C148.801 28.895 148.582 28.9893 148.33 29.0452C148.06 29.1024 147.785 29.1303 147.509 29.1285H146.609V31.3267H145.377V25.6885Z" fill="white"/>
<path d="M151.964 28.0222H152.69C152.8 28.022 152.917 28.0179 153.04 28.0099C153.164 28.0023 153.276 27.9785 153.376 27.9383C153.477 27.8985 153.559 27.836 153.625 27.751C153.691 27.6661 153.724 27.5467 153.724 27.393C153.724 27.25 153.695 27.1358 153.637 27.0506C153.581 26.9674 153.505 26.9001 153.416 26.8552C153.319 26.8081 153.215 26.7771 153.108 26.7635C152.995 26.7481 152.882 26.7401 152.768 26.7398H151.964V28.0222ZM150.732 25.6888H152.895C153.179 25.6888 153.449 25.7168 153.704 25.7727C153.959 25.8282 154.183 25.9209 154.375 26.0507C154.569 26.184 154.727 26.3651 154.833 26.5768C154.946 26.7971 155.003 27.0717 155.003 27.4005C155.003 27.7987 154.9 28.1372 154.695 28.416C154.489 28.695 154.189 28.8717 153.795 28.9461L155.216 31.3267H153.739L152.571 29.0732H151.964V31.3267H150.732V25.6888Z" fill="white"/>
<path d="M156.405 25.6885H160.202V26.835H157.637V27.8866H160.06V29.0329H157.637V30.1801H160.345V31.3267H156.405V25.6885Z" fill="white"/>
<path d="M160.987 25.6885H162.392L163.773 29.3834H163.789L165.195 25.6885H166.513L164.208 31.3267H163.221L160.987 25.6885Z" fill="white"/>
<path d="M167.324 25.6885H171.122V26.835H168.556V27.8866H170.979V29.0329H168.556V30.1801H171.264V31.3267H167.324V25.6885Z" fill="white"/>
<path d="M172.741 25.6885H174.414L176.791 29.6062H176.806V25.6885H178.038V31.3267H176.428L173.988 27.3134H173.973V31.3267H172.741V25.6885Z" fill="white"/>
<path d="M180.708 26.7872H179.114V25.6885H183.535V26.7872H181.94V31.3267H180.708V26.7872Z" fill="white"/>
<path d="M184.812 25.6885H186.043V31.3267H184.812V25.6885Z" fill="white"/>
<path d="M188.554 28.5076C188.554 28.7732 188.595 29.0161 188.676 29.2364C188.753 29.4497 188.873 29.6448 189.027 29.8096C189.181 29.9735 189.368 30.1024 189.576 30.1878C189.789 30.2784 190.027 30.3236 190.291 30.3234C190.554 30.3234 190.792 30.2782 191.005 30.1878C191.212 30.1016 191.399 29.9728 191.554 29.8096C191.708 29.6448 191.828 29.4496 191.905 29.2364C191.986 29.0161 192.027 28.7732 192.027 28.5076C192.027 28.2475 191.986 28.0059 191.905 27.7828C191.828 27.5682 191.709 27.3717 191.554 27.2056C191.399 27.0424 191.212 26.9136 191.005 26.8275C190.792 26.7373 190.554 26.6921 190.291 26.6919C190.027 26.6919 189.789 26.7371 189.576 26.8275C189.369 26.9138 189.182 27.0425 189.027 27.2056C188.872 27.3716 188.752 27.5681 188.676 27.7828C188.593 28.0152 188.552 28.2606 188.554 28.5076ZM187.275 28.5076C187.275 28.0567 187.35 27.6479 187.5 27.2811C187.641 26.9279 187.855 26.6091 188.128 26.3459C188.402 26.0838 188.727 25.8817 189.082 25.7524C189.451 25.6144 189.853 25.5453 190.291 25.5453C190.727 25.5453 191.13 25.6144 191.498 25.7524C191.853 25.8825 192.178 26.0844 192.454 26.3459C192.726 26.6095 192.94 26.9282 193.081 27.2811C193.231 27.6479 193.306 28.0567 193.306 28.5076C193.306 28.959 193.231 29.3678 193.081 29.7342C192.931 30.1006 192.722 30.4123 192.454 30.6694C192.178 30.9308 191.853 31.1328 191.498 31.2628C191.13 31.4009 190.727 31.47 190.291 31.47C189.853 31.47 189.451 31.4009 189.082 31.2628C188.727 31.1335 188.402 30.9315 188.128 30.6694C187.859 30.4123 187.65 30.1006 187.5 29.7342C187.35 29.3678 187.275 28.959 187.275 28.5076Z" fill="white"/>
<path d="M194.534 25.6885H196.208L198.584 29.6062H198.6V25.6885H199.831V31.3267H198.221L195.781 27.3134H195.766V31.3267H194.534V25.6885Z" fill="white"/>
<path d="M1.36045 45.9111H64.8525C68.3744 45.9111 71.2714 43.2109 71.6195 39.7507C71.6429 39.5201 71.6546 39.2863 71.6546 39.0493V1.81139H8.16294C5.81464 1.81139 3.74453 3.01161 2.52219 4.83681C2.27611 5.20383 2.06602 5.59415 1.8949 6.00223C1.54068 6.84729 1.35892 7.75571 1.36045 8.67321V45.9111Z" fill="#0057B7"/>
<path d="M71.6195 39.751C71.2714 43.2111 68.3741 45.9114 64.8525 45.9114H16.348L53.3753 30.8201C54.7372 31.3273 56.1504 31.5572 57.4295 31.5572C61.2654 31.5572 63.2946 29.519 63.7568 28.9897C63.7862 28.9564 63.8023 28.9133 63.802 28.8688C63.8018 28.8242 63.7852 28.7813 63.7555 28.7484L62.3424 27.1651L71.6546 23.37V39.0492C71.6546 39.2864 71.6429 39.5203 71.6195 39.751ZM8.62905 45.9114L29.5826 31.1108H34.8987C40.7329 31.1108 45.2567 27.6795 45.2567 21.2915C45.2567 14.3708 41.0036 11.5984 35.104 11.3769L44.1372 1.81164H69.0572L53.0294 11.9613C49.8243 13.2675 47.0173 16.1622 47.0173 21.3289C47.0173 25.9259 49.2612 28.722 52.0121 30.2032L13.4713 45.9114H8.62905ZM1.36045 45.1371L9.48327 23.7856C10.3433 28.0047 13.4094 30.251 16.5272 31.1212L3.32611 45.9114H1.36045V45.1371ZM1.8949 6.00248C2.06602 5.59439 2.2761 5.20407 2.52219 4.83705C3.74453 3.01152 5.81464 1.81164 8.16261 1.81164H16.689L12.0334 14.0486C10.3807 15.6728 9.24376 18.0407 9.24376 21.3289C9.24419 21.3454 9.24451 21.3619 9.24473 21.3786L1.36045 42.1033V8.67345C1.36045 7.72622 1.55063 6.82354 1.8949 6.00248ZM33.6316 11.3607H28.0266C27.979 11.3609 27.9334 11.38 27.8997 11.4139C27.866 11.4478 27.847 11.4938 27.8467 11.5418V30.9296C27.8471 30.9539 27.8519 30.9778 27.8609 31.0002L6.75073 45.9114H4.77571L17.7363 31.3907C18.3704 31.4998 19.0123 31.5555 19.6556 31.5572C23.4915 31.5572 25.5203 29.519 25.9829 28.9897C26.0123 28.9564 26.0284 28.9133 26.0281 28.8688C26.0279 28.8242 26.0113 28.7813 25.9816 28.7484L23.5473 26.0208C23.5156 25.9851 23.4712 25.9635 23.4237 25.9608C23.3763 25.958 23.3297 25.9744 23.2942 26.0062C22.8678 26.3941 21.4056 27.5608 19.2146 27.5979C16.455 27.6441 13.6593 25.335 13.6593 21.3289C13.6593 17.3228 16.5443 15.0599 19.2465 15.0599C21.2534 15.0599 22.5461 16.0136 22.94 16.3502C22.9754 16.3804 23.0212 16.3954 23.0675 16.3919C23.1138 16.3884 23.1569 16.3668 23.1875 16.3316L25.6383 13.5855C25.6675 13.5537 25.6842 13.5123 25.6854 13.469C25.6866 13.4257 25.6721 13.3835 25.6448 13.3501C25.2435 12.8646 23.5205 11.1009 19.6556 11.1009C17.7392 11.1009 15.5508 11.6016 13.6757 12.7658L17.843 1.81164H42.6489L33.6316 11.3607ZM34.4007 27.0939H32.3402C32.3167 27.0939 32.2933 27.0892 32.2715 27.0801C32.2497 27.071 32.23 27.0577 32.2133 27.0408C32.1966 27.024 32.1834 27.0041 32.1744 26.9821C32.1653 26.9601 32.1607 26.9366 32.1607 26.9128V15.559C32.1607 15.4589 32.241 15.3776 32.3402 15.3776H34.705C38.3549 15.3776 40.777 17.1907 40.777 21.0684C40.777 25.5597 38.4104 27.0939 34.4007 27.0939ZM61.3212 26.0208C61.2893 25.9853 61.245 25.9639 61.1976 25.9612C61.1503 25.9584 61.1037 25.9746 61.0681 26.0062C60.6417 26.3941 59.1795 27.5608 56.9885 27.5979C54.2289 27.6441 51.4329 25.335 51.4329 21.3289C51.4329 17.3228 54.3182 15.0599 57.0204 15.0599C59.0273 15.0599 60.32 16.0136 60.7135 16.3502C60.7491 16.3802 60.7949 16.3951 60.8412 16.3917C60.8875 16.3882 60.9306 16.3667 60.9614 16.3316L63.4122 13.5855C63.4414 13.5537 63.4581 13.5123 63.4593 13.469C63.4605 13.4257 63.446 13.3835 63.4187 13.3501C63.0174 12.8646 61.2941 11.1009 57.4295 11.1009C57.0704 11.1009 56.701 11.1207 56.3264 11.1568L71.0838 1.81164H71.6546V22.1974L61.5752 26.3057L61.3212 26.0208ZM8.16261 0.439075C3.66168 0.439075 -0.000183105 4.13305 -0.000183105 8.67345V47.2839H64.8525C69.3534 47.2839 73.0153 43.59 73.0153 39.0492V0.439075H8.16261Z" fill="white"/>
</svg>
