<svg width="300" height="312" viewBox="0 0 300 312" fill="none" xmlns="http://www.w3.org/2000/svg">
<path d="M150 11.8988C190.055 11.8988 227.725 27.5079 256.058 55.8408C284.391 84.1737 300 121.844 300 161.919L297.596 161.919C297.596 122.505 282.247 85.436 254.355 57.544C226.483 29.672 189.414 14.3033 150 14.3033L150 11.8988Z" fill="white"/>
<path d="M3.30929e-05 161.919L2.40451 161.919C2.40452 201.352 17.7532 238.402 45.6252 266.294C73.4972 294.186 110.566 309.534 150 309.534L150 311.939C109.925 311.939 72.2549 296.33 43.922 267.997C15.6092 239.664 3.6481e-05 201.994 3.30946e-05 161.939L3.30929e-05 161.919Z" fill="white"/>
<path d="M149.359 11.9188L149.359 14.3233C148.577 14.3233 147.776 14.3233 146.994 14.3434L146.954 11.9389C147.756 11.9389 148.557 11.9188 149.379 11.9188L149.359 11.9188ZM144.53 11.999L144.61 14.4035C143.808 14.4235 143.027 14.4636 142.225 14.5037L142.105 12.0992C142.907 12.0591 143.708 12.019 144.53 11.999ZM139.681 12.2595L139.841 14.664C139.04 14.7241 138.258 14.7842 137.457 14.8443L137.256 12.4398C138.058 12.3797 138.859 12.3196 139.681 12.2595ZM134.852 12.6602L135.092 15.0447C134.291 15.1248 133.509 15.205 132.728 15.3052L132.447 12.9207C133.249 12.8205 134.05 12.7404 134.852 12.6602ZM130.043 13.2213L130.363 15.6057C129.582 15.7059 128.78 15.8261 127.999 15.9464L127.638 13.5619C128.44 13.4417 129.241 13.3215 130.043 13.2213ZM125.254 13.9426L125.655 16.307C124.873 16.4473 124.092 16.5675 123.31 16.7078L122.869 14.3434C123.671 14.2031 124.452 14.0628 125.254 13.9226L125.254 13.9426ZM120.485 14.8042L120.966 17.1686C120.184 17.3289 119.403 17.4892 118.621 17.6495L118.12 15.3052C118.902 15.1449 119.703 14.9645 120.485 14.8042ZM115.756 15.8462L116.297 18.1905C115.516 18.3709 114.754 18.5512 113.973 18.7516L113.392 16.4272C114.173 16.2269 114.955 16.0465 115.756 15.8662L115.756 15.8462ZM111.047 17.0084L111.668 19.3327C110.907 19.5331 110.126 19.7535 109.364 19.9739L108.703 17.6696C109.484 17.4492 110.266 17.2287 111.047 17.0284L111.047 17.0084ZM106.379 18.3508L107.08 20.6551C106.318 20.8956 105.557 21.116 104.796 21.3564L104.054 19.0722C104.816 18.8317 105.597 18.5913 106.359 18.3508L106.379 18.3508ZM101.77 19.8336L102.551 22.1179C101.79 22.3784 101.049 22.6388 100.307 22.8993L99.5058 20.6351C100.267 20.3546 101.029 20.0941 101.79 19.8336L101.77 19.8336ZM97.2015 21.4566L98.043 23.7008C97.3016 23.9813 96.5603 24.2619 95.8189 24.5624L94.9372 22.3183C95.6786 22.0177 96.44 21.7372 97.2015 21.4566ZM92.693 23.24L93.6148 25.4641C92.8734 25.7647 92.152 26.0652 91.4307 26.3858L90.4689 24.1817C91.2103 23.8611 91.9517 23.5405 92.693 23.24ZM88.2648 25.1636L89.2466 27.3476C88.5253 27.6682 87.8039 28.0089 87.0826 28.3495L86.0607 26.1855C86.782 25.8448 87.5234 25.5042 88.2447 25.1636L88.2648 25.1636ZM83.8966 27.2074L84.9586 29.3714C84.2573 29.712 83.536 30.0727 82.8347 30.4334L81.7326 28.2894C82.4539 27.9287 83.1753 27.568 83.8966 27.2074ZM79.6086 29.4115L80.7307 31.5355C80.0294 31.9162 79.3281 32.2768 78.6468 32.6776L77.4847 30.5737C78.186 30.193 78.8873 29.7922 79.6086 29.4115ZM75.3807 31.7559L76.583 33.8398C75.9017 34.2405 75.2204 34.6413 74.5392 35.042L73.3169 32.9781C74.0182 32.5574 74.6995 32.1566 75.4008 31.7559L75.3807 31.7559ZM71.233 34.2405L72.4953 36.2843C71.8141 36.7051 71.1528 37.1259 70.4916 37.5467L69.1892 35.5229C69.8704 35.0821 70.5517 34.6613 71.233 34.2405ZM67.1454 36.8454L68.4678 38.8491C67.8066 39.2899 67.1454 39.7308 66.5042 40.1916L65.1416 38.2079C65.8029 37.747 66.4641 37.3062 67.1454 36.8454ZM63.1579 39.5705L64.5605 41.5341C63.9193 41.995 63.2781 42.4558 62.6369 42.9367L61.2143 40.9931C61.8555 40.5122 62.5167 40.0514 63.1779 39.5705L63.1579 39.5705ZM59.2707 42.4558L60.7334 44.3594C60.0922 44.8403 59.471 45.3212 58.8499 45.8221L57.3671 43.9386C58.0083 43.4377 58.6295 42.9568 59.2907 42.4558L59.2707 42.4558ZM55.4636 45.4414L56.9864 47.3049C56.3653 47.8058 55.7641 48.3067 55.143 48.8277L53.6001 46.9843C54.2213 46.4633 54.8424 45.9423 55.4636 45.4414ZM51.7566 48.5472L53.3396 50.3706C52.7385 50.8916 52.1373 51.4125 51.5563 51.9536L49.9533 50.1702C50.5544 49.6292 51.1555 49.1083 51.7767 48.5673L51.7566 48.5472ZM48.1499 51.7732L49.773 53.5365C49.1919 54.0775 48.6108 54.6185 48.0297 55.1595L46.3666 53.4163C46.9477 52.8552 47.5287 52.3142 48.1299 51.7532L48.1499 51.7732ZM44.6434 55.1395L46.3265 56.8427C45.7655 57.4037 45.2044 57.9648 44.6434 58.5258L42.9201 56.8427C43.4812 56.2616 44.0623 55.7006 44.6233 55.1195L44.6434 55.1395ZM41.2571 58.586L43.0003 60.249C42.4593 60.8301 41.9183 61.4112 41.3773 61.9923L39.614 60.3693C40.155 59.7681 40.716 59.1871 41.2771 58.606L41.2571 58.586ZM37.9709 62.1526L39.7743 63.7556C39.2533 64.3567 38.7123 64.9378 38.2114 65.5389L36.388 63.976C36.9089 63.3548 37.4499 62.7537 37.991 62.1526L37.9709 62.1526ZM34.805 65.8194L36.6485 67.3623C36.1475 67.9634 35.6265 68.5846 35.1256 69.2058L33.2621 67.703C33.7631 67.0818 34.284 66.4406 34.805 65.8395L34.805 65.8194ZM31.7593 69.5865L33.6629 71.0692C33.182 71.6904 32.681 72.3316 32.2001 72.9528L30.2766 71.5101C30.7575 70.8689 31.2584 70.2277 31.7593 69.5865ZM28.8339 73.4537L30.7775 74.8763C30.3166 75.5175 29.8357 76.1587 29.3749 76.82L27.4112 75.4374C27.8721 74.7762 28.353 74.1149 28.8339 73.4737L28.8339 73.4537ZM26.0286 77.4211L28.0123 78.7836C27.5715 79.4449 27.1106 80.1061 26.6899 80.7673L24.6861 79.4449C25.1269 78.7636 25.5878 78.1024 26.0286 77.4211ZM23.3637 81.4687L25.3874 82.751C24.9666 83.4323 24.5459 84.0935 24.1251 84.7748L22.0813 83.5125C22.502 82.8312 22.9429 82.1299 23.3637 81.4486L23.3637 81.4687ZM20.8189 85.6164L22.8828 86.8387C22.482 87.52 22.0813 88.2212 21.6805 88.9025L19.5966 87.7203C19.9974 87.019 20.3981 86.3177 20.8189 85.6164ZM18.4144 89.8242L20.5184 90.9864C20.1376 91.6877 19.7569 92.389 19.3762 93.0903L17.2523 91.9683C17.633 91.2469 18.0137 90.5456 18.3944 89.8242L18.4144 89.8242ZM16.1502 94.1122L18.2942 95.1943C17.9335 95.8956 17.5729 96.6169 17.2322 97.3383L15.0682 96.2763C15.4288 95.555 15.7895 94.8136 16.1502 94.0922L16.1502 94.1122ZM14.0262 98.4804L16.2103 99.5023C15.8697 100.224 15.5491 100.945 15.2084 101.686L13.0043 100.705C13.345 99.9632 13.6656 99.2218 14.0062 98.5004L14.0262 98.4804ZM12.0425 102.929L14.2466 103.87C13.9261 104.612 13.6255 105.333 13.3249 106.075L11.1008 105.173C11.4013 104.432 11.7219 103.67 12.0425 102.929ZM10.1991 107.417L12.4433 108.299C12.1628 109.04 11.8622 109.781 11.6017 110.543L9.35751 109.701C9.63804 108.94 9.91857 108.178 10.2191 107.437L10.1991 107.417ZM8.51596 111.986L10.7802 112.787C10.5197 113.529 10.2592 114.29 9.99873 115.051L7.71446 114.29C7.97494 113.529 8.23544 112.747 8.49592 111.986L8.51596 111.986ZM6.97306 116.594L9.25734 117.316C9.01689 118.077 8.77644 118.838 8.55603 119.6L6.25172 118.919C6.49217 118.137 6.71258 117.376 6.97306 116.594ZM5.5905 121.243L7.91484 121.884C7.69442 122.645 7.49406 123.407 7.29368 124.188L4.96933 123.567C5.16969 122.786 5.39012 122.004 5.61053 121.223L5.5905 121.243ZM4.34817 125.932L6.69256 126.513C6.51222 127.294 6.31184 128.056 6.1315 128.837L3.78714 128.296C3.96748 127.515 4.14779 126.713 4.34817 125.932ZM3.26614 130.64L5.61053 131.141C5.45024 131.923 5.28993 132.704 5.12964 133.486L2.76521 133.025C2.9255 132.223 3.08581 131.442 3.24611 130.64L3.26614 130.64ZM2.34443 135.409L4.70886 135.83C4.56859 136.612 4.42833 137.393 4.3081 138.174L1.94368 137.794C2.0639 136.992 2.20418 136.191 2.34443 135.409ZM1.56297 140.198L3.94742 140.539C3.82719 141.32 3.72702 142.102 3.62683 142.903L1.24237 142.603C1.34256 141.801 1.46278 141 1.56297 140.198ZM0.941817 144.987L3.32626 145.248C3.24612 146.029 3.16598 146.831 3.08583 147.612L0.701369 147.392C0.781523 146.59 0.861662 145.789 0.961852 144.987L0.941817 144.987ZM0.480971 149.816L2.88545 149.997C2.82535 150.778 2.76523 151.58 2.70511 152.381L0.300628 152.221C0.360732 151.419 0.400817 150.598 0.480971 149.796L0.480971 149.816ZM0.180404 154.645L2.5849 154.765C2.54481 155.567 2.52478 156.348 2.48471 157.15L0.080215 157.07C0.100265 156.268 0.140335 155.447 0.180404 154.645ZM0.0200956 159.494L2.42459 159.534C2.42459 160.336 2.42459 161.117 2.42459 161.919L0.0200958 161.919C0.0200958 161.117 0.0200957 160.296 0.0200956 159.494Z" fill="white"/>
<path d="M297.595 161.919L300 161.919C300 162.72 300 163.542 300 164.343L297.595 164.303C297.595 163.502 297.595 162.72 297.595 161.919ZM297.515 166.688L299.92 166.768C299.9 167.569 299.86 168.391 299.82 169.192L297.415 169.072C297.455 168.271 297.475 167.489 297.515 166.688ZM297.295 171.457L299.699 171.617C299.639 172.418 299.599 173.22 299.519 174.041L297.115 173.841C297.175 173.06 297.235 172.258 297.295 171.457ZM296.914 176.205L299.299 176.426C299.219 177.227 299.138 178.029 299.038 178.83L296.654 178.57C296.734 177.788 296.834 176.987 296.894 176.205L296.914 176.205ZM296.373 180.934L298.758 181.235C298.657 182.036 298.537 182.838 298.437 183.639L296.053 183.299C296.173 182.517 296.273 181.736 296.373 180.934ZM295.692 185.663L298.056 186.044C297.936 186.845 297.796 187.647 297.656 188.428L295.291 188.008C295.431 187.226 295.572 186.445 295.692 185.663ZM294.85 190.352L297.215 190.813C297.054 191.614 296.894 192.396 296.734 193.177L294.39 192.676C294.55 191.895 294.71 191.113 294.87 190.332L294.85 190.352ZM293.869 195.021L296.213 195.562C296.033 196.343 295.852 197.145 295.652 197.926L293.328 197.345C293.508 196.584 293.708 195.802 293.889 195.021L293.869 195.021ZM292.726 199.649L295.051 200.27C294.85 201.052 294.63 201.833 294.41 202.615L292.085 201.974C292.306 201.212 292.506 200.451 292.706 199.669L292.726 199.649ZM291.444 204.238L293.748 204.919C293.508 205.701 293.267 206.482 293.027 207.243L290.743 206.522C290.983 205.761 291.224 204.999 291.444 204.238ZM290.001 208.806L292.286 209.568C292.025 210.329 291.765 211.111 291.504 211.872L289.24 211.071C289.5 210.309 289.761 209.568 290.021 208.806L290.001 208.806ZM288.398 213.315L290.643 214.156C290.362 214.918 290.081 215.679 289.781 216.421L287.537 215.539C287.817 214.797 288.118 214.056 288.378 213.295L288.398 213.315ZM286.655 217.763L288.879 218.665C288.579 219.406 288.258 220.168 287.937 220.909L285.733 219.967C286.054 219.226 286.355 218.504 286.655 217.763ZM284.772 222.171L286.976 223.153C286.635 223.894 286.314 224.636 285.974 225.357L283.79 224.335C284.13 223.614 284.451 222.893 284.792 222.171L284.772 222.171ZM282.748 226.499L284.912 227.561C284.551 228.283 284.19 229.024 283.83 229.745L281.686 228.663C282.046 227.962 282.407 227.241 282.748 226.519L282.748 226.499ZM280.584 230.747L282.708 231.869C282.327 232.591 281.946 233.292 281.566 234.013L279.462 232.851C279.842 232.15 280.223 231.449 280.604 230.747L280.584 230.747ZM278.299 234.935L280.383 236.117C279.983 236.819 279.582 237.52 279.161 238.221L277.097 236.999C277.498 236.318 277.899 235.616 278.299 234.935ZM275.855 239.043L277.899 240.305C277.478 240.986 277.037 241.688 276.616 242.369L274.593 241.087C275.013 240.405 275.434 239.744 275.855 239.063L275.855 239.043ZM273.29 243.09L275.294 244.413C274.853 245.094 274.392 245.755 273.951 246.437L271.968 245.074C272.409 244.413 272.869 243.752 273.29 243.09ZM270.605 247.018L272.569 248.4C272.108 249.061 271.627 249.723 271.146 250.364L269.203 248.941C269.663 248.3 270.144 247.659 270.605 246.998L270.605 247.018ZM267.78 250.865L269.703 252.308C269.223 252.949 268.722 253.59 268.221 254.231L266.337 252.748C266.818 252.127 267.319 251.486 267.8 250.865L267.78 250.865ZM264.834 254.632L266.698 256.135C266.197 256.756 265.676 257.397 265.155 257.998L263.312 256.455C263.812 255.854 264.333 255.233 264.834 254.612L264.834 254.632ZM261.789 258.299L263.612 259.862C263.091 260.483 262.55 261.084 262.009 261.685L260.206 260.082C260.727 259.481 261.268 258.9 261.769 258.299L261.789 258.299ZM258.603 261.845L260.366 263.468C259.825 264.069 259.264 264.651 258.703 265.232L256.96 263.569C257.501 262.987 258.042 262.406 258.583 261.825L258.603 261.845ZM255.337 265.312L257.06 266.995C256.499 267.576 255.918 268.137 255.357 268.718L253.674 267.015C254.235 266.454 254.796 265.893 255.357 265.332L255.337 265.312ZM251.93 268.658L253.593 270.401C253.012 270.962 252.431 271.503 251.83 272.064L250.207 270.301C250.788 269.76 251.369 269.219 251.95 268.678L251.93 268.658ZM248.444 271.904L250.047 273.687C249.446 274.228 248.845 274.749 248.223 275.29L246.64 273.467C247.242 272.946 247.843 272.425 248.424 271.884L248.444 271.904ZM244.837 275.01L246.38 276.853C245.759 277.374 245.138 277.895 244.516 278.396L242.994 276.533C243.615 276.032 244.216 275.531 244.837 275.01ZM241.15 278.015L242.633 279.899C241.992 280.4 241.371 280.881 240.709 281.382L239.247 279.478C239.888 278.997 240.509 278.516 241.13 278.015L241.15 278.015ZM237.343 280.901L238.766 282.845C238.125 283.325 237.463 283.786 236.802 284.267L235.399 282.303C236.041 281.843 236.682 281.382 237.323 280.901L237.343 280.901ZM233.476 283.666L234.838 285.65C234.177 286.111 233.516 286.551 232.835 287.012L231.512 285.009C232.173 284.568 232.835 284.127 233.476 283.686L233.476 283.666ZM229.508 286.291L230.811 288.315C230.13 288.756 229.448 289.176 228.767 289.597L227.505 287.553C228.186 287.133 228.847 286.712 229.508 286.291ZM225.461 288.796L226.683 290.859C225.982 291.28 225.301 291.681 224.599 292.082L223.397 289.998C224.078 289.597 224.76 289.196 225.441 288.796L225.461 288.796ZM221.333 291.16L222.495 293.264C221.794 293.645 221.093 294.045 220.371 294.426L219.249 292.302C219.951 291.921 220.652 291.561 221.333 291.16ZM217.145 293.404L218.247 295.548C217.526 295.909 216.805 296.27 216.083 296.63L215.021 294.466C215.723 294.126 216.444 293.765 217.145 293.404ZM212.877 295.488L213.899 297.652C213.178 297.993 212.437 298.333 211.715 298.674L210.733 296.49C211.455 296.169 212.176 295.829 212.897 295.488L212.877 295.488ZM208.549 297.452L209.511 299.656C208.77 299.976 208.028 300.297 207.287 300.598L206.365 298.373C207.107 298.073 207.828 297.752 208.549 297.452ZM204.141 299.275L205.023 301.519C204.281 301.82 203.52 302.1 202.759 302.381L201.917 300.137C202.658 299.856 203.4 299.576 204.141 299.275ZM199.693 300.958L200.494 303.223C199.733 303.503 198.971 303.764 198.21 304.024L197.429 301.74C198.19 301.479 198.931 301.219 199.673 300.958L199.693 300.958ZM195.164 302.481L195.906 304.765C195.144 305.006 194.363 305.246 193.601 305.487L192.9 303.182C193.662 302.942 194.423 302.722 195.184 302.481L195.164 302.481ZM190.616 303.864L191.277 306.168C190.496 306.388 189.714 306.609 188.933 306.809L188.312 304.485C189.073 304.285 189.854 304.064 190.616 303.844L190.616 303.864ZM186.007 305.106L186.588 307.43C185.807 307.631 185.025 307.811 184.224 307.991L183.683 305.647C184.464 305.467 185.226 305.286 186.007 305.086L186.007 305.106ZM181.359 306.188L181.86 308.532C181.078 308.713 180.277 308.873 179.495 309.033L179.034 306.669C179.816 306.509 180.597 306.348 181.359 306.188ZM176.69 307.11L177.131 309.474C176.329 309.614 175.548 309.755 174.746 309.895L174.345 307.531C175.127 307.39 175.908 307.27 176.69 307.13L176.69 307.11ZM171.981 307.891L172.342 310.276C171.54 310.396 170.739 310.516 169.937 310.616L169.617 308.232C170.398 308.132 171.2 308.011 171.981 307.891ZM167.252 308.532L167.533 310.917C166.731 311.017 165.93 311.097 165.128 311.177L164.888 308.793C165.689 308.713 166.471 308.633 167.252 308.532ZM162.503 308.993L162.704 311.398C161.902 311.458 161.101 311.518 160.279 311.578L160.119 309.174C160.92 309.114 161.702 309.053 162.503 308.993ZM157.755 309.334L157.875 311.738C157.073 311.779 156.272 311.819 155.45 311.839L155.37 309.434C156.172 309.414 156.953 309.374 157.755 309.334ZM152.986 309.494L153.026 311.899C152.224 311.899 151.423 311.919 150.601 311.919L150.601 309.514C151.383 309.514 152.184 309.514 152.966 309.494L152.986 309.494Z" fill="white"/>
<path d="M230.39 161.919L232.795 161.919C232.795 201.853 224.259 239.443 208.75 267.716C193.121 296.229 172.262 311.939 150 311.939L150 309.534C194.323 309.534 230.39 243.311 230.39 161.919Z" fill="white"/>
<path d="M150 11.8988L150 14.3033C105.677 14.3033 69.61 80.5269 69.61 161.919L67.2055 161.919C67.2055 121.984 75.7414 84.3941 91.2503 56.1213C106.88 27.6081 127.738 11.8988 150 11.8988Z" fill="white"/>
<path d="M67.2055 161.919L69.61 161.919C69.61 162.64 69.61 163.382 69.61 164.103L67.2055 164.103C67.2055 163.382 67.2055 162.66 67.2055 161.919ZM69.65 166.487C69.65 167.289 69.67 168.09 69.6901 168.872L67.2856 168.932C67.2656 168.13 67.2455 167.329 67.2255 166.507L69.63 166.467L69.65 166.487ZM69.7702 171.276C69.7903 172.078 69.8304 172.879 69.8704 173.661L67.4659 173.761C67.4259 172.959 67.4058 172.158 67.3658 171.356L69.7702 171.276ZM69.9907 176.065C70.0307 176.867 70.0708 177.668 70.1309 178.45L67.7264 178.59C67.6864 177.788 67.6262 176.987 67.5862 176.185L69.9907 176.065ZM70.2712 180.834C70.3313 181.636 70.3914 182.437 70.4515 183.219L68.047 183.399C67.9869 182.597 67.9268 181.796 67.8667 180.994L70.2712 180.834ZM70.6519 185.603C70.732 186.405 70.7921 187.186 70.8723 187.987L68.4878 188.228C68.4077 187.426 68.3275 186.625 68.2674 185.823L70.6519 185.603ZM71.1128 190.372C71.1929 191.173 71.2931 191.955 71.3732 192.756L68.9888 193.037C68.8886 192.235 68.8085 191.434 68.7283 190.632L71.1128 190.372ZM71.6738 195.121C71.774 195.922 71.8742 196.704 71.9744 197.485L69.5899 197.806C69.4897 197.004 69.3695 196.203 69.2693 195.421L71.6538 195.121L71.6738 195.121ZM72.315 199.87C72.4352 200.651 72.5554 201.453 72.6757 202.234L70.2912 202.595C70.171 201.793 70.0508 201.012 69.9306 200.21L72.315 199.87ZM73.0364 204.598C73.1766 205.38 73.2968 206.181 73.4371 206.963L71.0727 207.384C70.9324 206.602 70.7922 205.801 70.6719 204.999L73.0364 204.598ZM73.8579 209.307C73.9981 210.089 74.1584 210.87 74.2987 211.652L71.9343 212.112C71.774 211.331 71.6337 210.53 71.4734 209.748L73.8378 209.307L73.8579 209.307ZM74.7796 213.996C74.9399 214.777 75.1002 215.559 75.2805 216.34L72.9362 216.841C72.7759 216.06 72.5955 215.278 72.4352 214.477L74.7996 213.996L74.7796 213.996ZM75.8015 218.685C75.9818 219.466 76.1622 220.248 76.3425 221.009L73.9981 221.57C73.8178 220.789 73.6375 220.007 73.4571 219.226L75.8015 218.685ZM76.9036 223.333C77.1039 224.115 77.3043 224.876 77.5047 225.658L75.1803 226.259C74.98 225.477 74.7796 224.696 74.5792 223.915L76.9036 223.333ZM78.1058 227.962C78.3262 228.723 78.5266 229.505 78.747 230.266L76.4427 230.928C76.2223 230.146 76.0019 229.385 75.7815 228.603L78.1058 227.962ZM79.4283 232.551C79.6487 233.312 79.8891 234.073 80.1296 234.835L77.8253 235.556C77.5848 234.795 77.3444 234.013 77.124 233.252L79.4283 232.571L79.4283 232.551ZM80.8509 237.119C81.0914 237.881 81.3519 238.642 81.5923 239.383L79.308 240.145C79.0476 239.383 78.8071 238.622 78.5466 237.841L80.8309 237.099L80.8509 237.119ZM82.3738 241.648C82.6343 242.409 82.9148 243.15 83.1753 243.892L80.911 244.713C80.6305 243.952 80.37 243.19 80.0895 242.429L82.3537 241.628L82.3738 241.648ZM84.0168 246.136C84.2974 246.877 84.5779 247.619 84.8785 248.36L82.6343 249.242C82.3337 248.5 82.0532 247.739 81.7526 246.978L83.9968 246.116L84.0168 246.136ZM85.7601 250.564C86.0607 251.306 86.3612 252.047 86.6818 252.768L84.4777 253.71C84.1571 252.969 83.8566 252.227 83.536 251.486L85.7601 250.564ZM87.6436 254.972C87.9642 255.694 88.3048 256.435 88.6254 257.157L86.4414 258.158C86.1007 257.437 85.7801 256.696 85.4395 255.954L87.6436 254.972ZM89.6474 259.301C89.988 260.022 90.3487 260.743 90.6893 261.445L88.5453 262.527C88.1846 261.805 87.824 261.084 87.4833 260.343L89.6474 259.301ZM91.7713 263.569C92.132 264.27 92.5127 264.971 92.8934 265.672L90.7695 266.815C90.3887 266.113 90.008 265.392 89.6273 264.671L91.7513 263.569L91.7713 263.569ZM94.0355 267.756C94.4363 268.458 94.817 269.139 95.2177 269.82L93.1339 271.042C92.7331 270.341 92.3324 269.64 91.9316 268.939L94.0355 267.756ZM96.44 271.884C96.8608 272.565 97.2816 273.247 97.7024 273.908L95.6786 275.19C95.2578 274.509 94.817 273.828 94.3962 273.126L96.4601 271.884L96.44 271.884ZM98.9848 275.892C99.4256 276.553 99.8664 277.214 100.327 277.855L98.3436 279.218C97.8827 278.556 97.4419 277.895 96.981 277.214L98.9848 275.892ZM101.69 279.819C102.151 280.46 102.632 281.101 103.112 281.722L101.189 283.165C100.708 282.524 100.227 281.863 99.7462 281.201L101.69 279.799L101.69 279.819ZM104.555 283.606C105.056 284.227 105.557 284.848 106.058 285.449L104.215 286.992C103.694 286.371 103.193 285.75 102.692 285.109L104.575 283.626L104.555 283.606ZM107.581 287.253C108.102 287.854 108.623 288.435 109.164 289.016L107.4 290.639C106.859 290.038 106.318 289.437 105.777 288.836L107.581 287.253ZM110.807 290.739C111.368 291.3 111.929 291.861 112.49 292.422L110.807 294.146C110.226 293.585 109.665 293.003 109.084 292.422L110.807 290.739ZM114.193 294.045C114.774 294.586 115.375 295.107 115.956 295.608L114.394 297.432C113.772 296.911 113.171 296.37 112.57 295.809L114.193 294.045ZM117.78 297.131C118.401 297.632 119.022 298.113 119.643 298.574L118.201 300.497C117.559 300.017 116.918 299.516 116.277 298.995L117.78 297.131ZM121.547 299.976C122.188 300.417 122.849 300.858 123.511 301.279L122.208 303.303C121.527 302.862 120.846 302.401 120.184 301.94L121.567 299.976L121.547 299.976ZM125.514 302.521C126.196 302.922 126.897 303.303 127.558 303.683L126.416 305.807C125.715 305.427 124.993 305.026 124.272 304.605L125.494 302.541L125.514 302.521ZM129.662 304.745C130.363 305.086 131.085 305.407 131.806 305.707L130.864 307.911C130.123 307.591 129.361 307.25 128.62 306.889L129.662 304.725L129.662 304.745ZM133.97 306.569C134.711 306.849 135.453 307.11 136.194 307.33L135.473 309.614C134.691 309.374 133.91 309.093 133.149 308.813L133.99 306.569L133.97 306.569ZM138.438 308.011C139.2 308.212 139.961 308.392 140.723 308.552L140.222 310.897C139.42 310.737 138.619 310.536 137.837 310.316L138.458 307.991L138.438 308.011ZM143.007 308.973C143.768 309.093 144.55 309.194 145.311 309.274L145.051 311.658C144.229 311.578 143.428 311.458 142.606 311.338L142.987 308.973L143.007 308.973ZM147.656 309.454C148.437 309.494 149.219 309.514 150 309.514L150 311.919C149.178 311.919 148.337 311.899 147.535 311.859L147.656 309.454Z" fill="white"/>
<path d="M150 216.921C170.819 216.921 190.997 221.169 209.932 229.525C228.146 237.56 244.416 249.041 258.282 263.629L259.064 264.45L258.282 265.272C244.396 279.819 228.126 291.28 209.912 299.315C190.956 307.671 170.799 311.919 150 311.919C108.883 311.919 70.4115 295.348 41.6578 265.272L40.8563 264.45L41.6578 263.629C55.5638 249.041 71.8542 237.58 90.0682 229.525C109.004 221.169 129.181 216.921 150 216.921ZM255.757 264.45C242.292 250.504 226.543 239.484 208.97 231.729C190.335 223.514 170.498 219.326 150.02 219.326C109.925 219.326 72.3952 235.336 44.2226 264.45C72.4353 293.524 109.965 309.514 150.02 309.514C190.075 309.514 190.335 305.347 208.97 297.111C226.543 289.357 242.272 278.376 255.777 264.43L255.757 264.45Z" fill="white"/>
<path d="M149.98 11.8988C150.16 11.8988 150.321 11.8988 150.501 11.8988C190.556 12.0391 228.146 27.7484 256.359 56.1614L257.2 57.003L256.359 57.8446C242.373 71.9709 225.982 83.0316 207.628 90.6658C189.313 98.3001 169.997 102.167 150.16 102.167C130.323 102.167 149.94 102.167 149.82 102.167C130.003 102.167 110.667 98.3001 92.3726 90.6658C74.0183 83.0116 57.6077 71.971 43.6216 57.8246L42.78 56.983L43.6216 56.1414C43.862 55.901 44.1025 55.6605 44.3429 55.4201C72.6357 27.3276 110.126 11.8588 149.98 11.8588L149.98 11.8988ZM253.794 57.023C226.122 29.5918 189.474 14.4436 150.481 14.3033C150.321 14.3033 150.14 14.3033 149.98 14.3033C110.827 14.3033 73.9983 29.4516 46.1864 57.0231C59.7517 70.5283 75.6013 81.108 93.2943 88.4818C111.308 95.9757 130.323 99.7829 149.82 99.7829L150.16 99.7829C169.677 99.7829 188.692 95.9757 206.706 88.4617C224.399 81.088 240.229 70.5082 253.814 57.003L253.794 57.023Z" fill="white"/>
<path d="M1.20233 163.121L298.798 163.121L298.798 160.717L1.20233 160.717L1.20233 163.121Z" fill="white"/>
<path d="M148.798 310.737L151.202 310.737L151.202 13.1211L148.798 13.1211L148.798 310.737Z" fill="white"/>
<path d="M150 11.8989C150.822 11.8989 151.663 11.9189 152.465 11.9589L152.344 14.3634C151.583 14.3234 150.782 14.3033 150 14.3033L150 11.8989ZM154.929 12.1593C155.731 12.2395 156.552 12.3597 157.374 12.4799L156.993 14.8443C156.232 14.7241 155.45 14.6239 154.689 14.5438L154.949 12.1593L154.929 12.1593ZM159.778 12.9408C160.58 13.1011 161.381 13.3015 162.163 13.5219L161.542 15.8462C160.78 15.6458 160.019 15.4655 159.257 15.3052L159.758 12.9608L159.778 12.9408ZM164.547 14.2031C165.329 14.4436 166.11 14.7241 166.872 15.0046L166.03 17.2488C165.309 16.9683 164.567 16.7279 163.826 16.4874L164.567 14.2031L164.547 14.2031ZM169.136 15.9264C169.877 16.247 170.639 16.5876 171.38 16.9483L170.338 19.1123C169.637 18.7717 168.915 18.4511 168.194 18.1505L169.136 15.9464L169.136 15.9264ZM173.564 18.0503C174.285 18.431 175.007 18.8318 175.708 19.2526L174.486 21.3164C173.805 20.9157 173.123 20.535 172.442 20.1543L173.584 18.0303L173.564 18.0503ZM177.792 20.535C178.473 20.9758 179.154 21.4366 179.816 21.8975L178.433 23.8612C177.792 23.4003 177.131 22.9595 176.469 22.5587L177.772 20.535L177.792 20.535ZM181.799 23.3202C182.441 23.8011 183.082 24.302 183.723 24.823L182.22 26.6864C181.599 26.1855 180.978 25.7046 180.357 25.2437L181.799 23.3202ZM185.607 26.3859C186.228 26.9068 186.829 27.4478 187.43 28.0089L185.807 29.7722C185.226 29.2312 184.625 28.7102 184.044 28.2093L185.607 26.3859ZM189.193 29.6921C189.774 30.2531 190.355 30.8342 190.916 31.4153L189.193 33.0984C188.632 32.5374 188.071 31.9763 187.51 31.4153L189.193 29.6921ZM192.6 33.1786C193.141 33.7797 193.682 34.3808 194.223 34.9819L192.419 36.5649C191.898 35.9638 191.357 35.3827 190.836 34.8016L192.6 33.1786ZM195.806 36.8454C196.327 37.4666 196.827 38.0877 197.328 38.7289L195.445 40.2117C194.944 39.5905 194.443 38.9694 193.942 38.3682L195.786 36.8254L195.806 36.8454ZM198.811 40.6525C199.292 41.2937 199.773 41.9549 200.254 42.6162L198.31 44.0188C197.849 43.3776 197.368 42.7364 196.888 42.1152L198.811 40.6725L198.811 40.6525ZM201.677 44.5999C202.137 45.2611 202.578 45.9223 203.039 46.6036L201.035 47.9261C200.595 47.2648 200.154 46.6036 199.693 45.9624L201.677 44.5999ZM204.342 48.6474C204.782 49.3287 205.203 50.01 205.624 50.7113L203.56 51.9536C203.139 51.2723 202.718 50.591 202.298 49.9298L204.321 48.6474L204.342 48.6474ZM206.866 52.7952C207.267 53.4965 207.668 54.1978 208.068 54.8991L205.965 56.0813C205.564 55.38 205.183 54.6987 204.782 54.0174L206.866 52.7952ZM209.251 57.0231C209.631 57.7244 210.012 58.4457 210.393 59.167L208.249 60.2691C207.888 59.5678 207.507 58.8665 207.127 58.1652L209.251 57.0231ZM211.475 61.3111C211.835 62.0324 212.196 62.7538 212.537 63.4951L210.373 64.5371C210.032 63.8157 209.671 63.0944 209.331 62.3931L211.475 61.3311L211.475 61.3111ZM213.579 65.6792C213.919 66.4005 214.24 67.1419 214.581 67.8833L212.376 68.8652C212.056 68.1438 211.715 67.4024 211.395 66.6811L213.579 65.6792ZM215.542 70.1075C215.863 70.8489 216.164 71.5902 216.484 72.3316L214.26 73.2533C213.959 72.512 213.659 71.7706 213.338 71.0492L215.542 70.1075ZM217.366 74.5958C217.666 75.3372 217.947 76.0987 218.247 76.8601L216.003 77.7217C215.723 76.9803 215.422 76.2389 215.142 75.4975L217.386 74.6159L217.366 74.5958ZM219.089 79.1043C219.37 79.8657 219.63 80.6271 219.911 81.3885L217.646 82.19C217.386 81.4286 217.105 80.6872 216.845 79.9458L219.109 79.1243L219.089 79.1043ZM220.692 83.6728C220.953 84.4342 221.193 85.1956 221.453 85.9771L219.169 86.7185C218.929 85.957 218.668 85.1956 218.428 84.4543L220.712 83.6928L220.692 83.6728ZM222.195 88.2814C222.435 89.0428 222.676 89.8243 222.896 90.5857L220.592 91.267C220.371 90.5055 220.131 89.7441 219.891 88.9827L222.195 88.2614L222.195 88.2814ZM223.557 92.91C223.778 93.6915 223.998 94.4529 224.219 95.2344L221.894 95.8756C221.674 95.0941 221.473 94.3327 221.253 93.5713L223.557 92.91ZM224.84 97.5788C225.04 98.3602 225.241 99.1417 225.441 99.9231L223.117 100.504C222.916 99.7227 222.716 98.9613 222.515 98.1799L224.84 97.5788ZM226.022 102.268C226.202 103.049 226.383 103.83 226.563 104.632L224.219 105.173C224.038 104.391 223.858 103.61 223.678 102.849L226.022 102.288L226.022 102.268ZM227.084 106.976C227.244 107.758 227.425 108.539 227.585 109.341L225.22 109.822C225.06 109.04 224.9 108.259 224.72 107.477L227.064 106.976L227.084 106.976ZM228.066 111.705C228.226 112.487 228.366 113.288 228.527 114.09L226.162 114.53C226.022 113.749 225.862 112.967 225.721 112.186L228.086 111.725L228.066 111.705ZM228.947 116.454C229.088 117.235 229.228 118.037 229.348 118.838L226.984 119.239C226.864 118.458 226.723 117.656 226.583 116.875L228.947 116.454ZM229.729 121.223C229.849 122.024 229.969 122.806 230.09 123.607L227.705 123.948C227.585 123.146 227.465 122.365 227.344 121.584L229.729 121.223ZM230.43 126.012C230.53 126.813 230.651 127.615 230.751 128.416L228.366 128.717C228.266 127.915 228.166 127.134 228.066 126.352L230.45 126.032L230.43 126.012ZM231.031 130.801C231.132 131.602 231.212 132.404 231.292 133.205L228.907 133.466C228.827 132.664 228.727 131.883 228.647 131.081L231.031 130.801ZM231.532 135.61C231.612 136.411 231.693 137.213 231.753 138.014L229.368 138.235C229.288 137.433 229.228 136.652 229.148 135.85L231.532 135.61ZM231.973 140.419C232.033 141.22 232.093 142.022 232.153 142.823L229.749 142.983C229.689 142.182 229.629 141.38 229.569 140.599L231.973 140.419ZM232.294 145.228C232.334 146.029 232.394 146.831 232.434 147.632L230.029 147.752C229.989 146.951 229.949 146.149 229.889 145.368L232.294 145.228ZM232.554 150.057C232.594 150.858 232.614 151.66 232.654 152.461L230.25 152.541C230.23 151.74 230.19 150.938 230.15 150.157L232.554 150.057ZM232.714 154.886C232.734 155.687 232.755 156.489 232.775 157.29L230.37 157.33C230.37 156.529 230.33 155.727 230.31 154.946L232.714 154.886ZM232.795 159.715C232.795 160.456 232.795 161.197 232.795 161.919L230.39 161.919C230.39 161.177 230.39 160.456 230.39 159.735L232.795 159.735L232.795 159.715Z" fill="white"/>
<path d="M69.3755 45.5949L112.846 45.5949L112.846 2.14843L69.3755 2.14844L69.3755 45.5949Z" fill="white"/>
<path d="M112.846 2.14843L69.3755 2.14844L69.3755 45.5949L112.846 2.14843Z" fill="white"/>
<path d="M112.846 45.5949L69.3755 2.14844L69.3755 45.5949L112.846 45.5949Z" fill="white"/>
<path d="M91.0986 23.8717L69.3753 2.14844L69.3753 45.5949L91.0986 23.8717Z" fill="white"/>
<path d="M83.8416 45.5949L98.3555 45.5949L98.3555 30.1261L83.8416 30.1261L83.8416 45.5949Z" fill="#82B4C9"/>
<path d="M98.3555 45.5949L83.8654 30.1499L83.8654 45.5949L98.3555 45.5949Z" fill="#6499AF"/>
<path d="M83.8415 28.0015L98.3555 28.0015C99.5491 28.0015 100.504 28.9564 100.504 30.15L100.504 45.6188C100.504 46.8124 99.5491 47.7672 98.3555 47.7672L83.8415 47.7672C82.648 47.7672 81.6931 46.8124 81.6931 45.6188L81.6931 30.15C81.6931 28.9564 82.648 28.0015 83.8415 28.0015ZM96.2071 32.2984L85.99 32.2984L85.99 43.4703L96.2071 43.4703L96.2071 32.2984Z" fill="#2E6276"/>
<path d="M69.3754 4.12386e-06L112.846 1.94216e-07C114.039 8.63184e-08 114.994 0.954868 114.994 2.14845L114.994 45.5949C114.994 46.7885 114.039 47.7434 112.846 47.7434L69.3754 47.7434C68.1819 47.7434 67.227 46.7885 67.227 45.5949L67.227 2.14846C67.227 0.954873 68.1818 4.23176e-06 69.3754 4.12386e-06ZM110.697 4.29691L71.5239 4.29691L71.5239 43.4703L110.697 43.4703L110.697 4.29691Z" fill="#2E6276"/>
<path d="M25.8812 45.5949L69.3516 45.5949L69.3516 2.14843L25.8812 2.14844L25.8812 45.5949Z" fill="white"/>
<path d="M69.3516 2.14843L25.8812 2.14844L25.8812 45.5949L69.3516 2.14843Z" fill="white"/>
<path d="M69.3516 45.5949L25.8812 2.14844L25.8812 45.5949L69.3516 45.5949Z" fill="white"/>
<path d="M47.6282 23.8717L25.8811 2.14847L25.8811 45.5949L47.6282 23.8717Z" fill="white"/>
<path d="M40.3713 45.5949L54.8853 45.5949L54.8853 30.1261L40.3713 30.1261L40.3713 45.5949Z" fill="#82B4C9"/>
<path d="M54.8853 45.5949L40.3713 30.15L40.3713 45.5949L54.8853 45.5949Z" fill="#6499AF"/>
<path d="M40.3712 28.0015L54.8852 28.0015C56.0788 28.0015 57.0337 28.9564 57.0337 30.15L57.0337 45.6188C57.0337 46.8124 56.0788 47.7673 54.8852 47.7673L40.3712 47.7673C39.1777 47.7673 38.2228 46.8124 38.2228 45.6188L38.2228 30.15C38.2228 28.9564 39.1777 28.0015 40.3712 28.0015ZM52.7368 32.2985L42.5197 32.2985L42.5197 43.4704L52.7368 43.4704L52.7368 32.2985Z" fill="#2E6276"/>
<path d="M25.8811 4.12386e-06L69.3515 1.94216e-07C70.5451 8.63184e-08 71.4999 0.954868 71.4999 2.14845L71.4999 45.5949C71.4999 46.7885 70.5451 47.7434 69.3515 47.7434L25.8811 47.7434C24.6876 47.7434 23.7327 46.7885 23.7327 45.5949L23.7327 2.14846C23.7327 0.954873 24.6876 4.23176e-06 25.8811 4.12386e-06ZM67.203 4.29691L28.0296 4.29691L28.0296 43.4703L67.203 43.4703L67.203 4.29691Z" fill="#2E6276"/>
<path d="M47.6282 89.0653L91.0986 89.0653L91.0986 45.6188L47.6282 45.6188L47.6282 89.0653Z" fill="white"/>
<path d="M91.0986 45.5949L47.6282 45.5949L47.6282 89.0653L91.0986 45.5949Z" fill="white"/>
<path d="M91.0986 89.0653L47.6282 45.5949L47.6282 89.0653L91.0986 89.0653Z" fill="white"/>
<path d="M69.3754 67.342L47.6283 45.5949L47.6283 89.0653L69.3754 67.342Z" fill="white"/>
<path d="M62.1184 89.0653L76.6324 89.0653L76.6324 73.5964L62.1184 73.5964L62.1184 89.0653Z" fill="#82B4C9"/>
<path d="M76.6324 89.0653L62.1184 73.5964L62.1184 89.0653L76.6324 89.0653Z" fill="#6499AF"/>
<path d="M62.1184 71.4479L76.6324 71.4479C77.826 71.4479 78.7808 72.4028 78.7808 73.5964L78.7808 89.0652C78.7808 90.2588 77.826 91.2137 76.6324 91.2137L62.1184 91.2137C60.9248 91.2137 59.9699 90.2588 59.9699 89.0652L59.9699 73.5964C59.9699 72.4028 60.9248 71.4479 62.1184 71.4479ZM74.4839 75.7448L64.2669 75.7448L64.2669 86.9168L74.4839 86.9168L74.4839 75.7448Z" fill="#2E6276"/>
<path d="M47.6282 43.4703L91.0986 43.4703C92.2921 43.4703 93.247 44.4252 93.247 45.6188L93.247 89.0652C93.247 90.2588 92.2921 91.2137 91.0986 91.2137L47.6282 91.2137C46.4346 91.2137 45.4798 90.2588 45.4798 89.0652L45.4798 45.6188C45.4798 44.4252 46.4346 43.4703 47.6282 43.4703ZM88.9501 47.7672L49.7767 47.7672L49.7767 86.9407L88.9501 86.9407L88.9501 47.7672Z" fill="#2E6276"/>
<path d="M228.525 45.5949L271.995 45.5949L271.995 2.14843L228.525 2.14844L228.525 45.5949Z" fill="white"/>
<path d="M271.995 2.14843L228.525 2.14844L228.525 45.5949L271.995 2.14843Z" fill="white"/>
<path d="M271.995 45.5949L228.525 2.14844L228.525 45.5949L271.995 45.5949Z" fill="white"/>
<path d="M250.248 23.8717L228.525 2.14844L228.525 45.5949L250.248 23.8717Z" fill="white"/>
<path d="M242.991 45.5949L257.505 45.5949L257.505 30.1261L242.991 30.1261L242.991 45.5949Z" fill="#82B4C9"/>
<path d="M257.505 45.5949L243.015 30.1499L243.015 45.5949L257.505 45.5949Z" fill="#6499AF"/>
<path d="M242.991 28.0015L257.505 28.0015C258.699 28.0015 259.653 28.9564 259.653 30.15L259.653 45.6188C259.653 46.8124 258.699 47.7672 257.505 47.7672L242.991 47.7672C241.797 47.7672 240.843 46.8124 240.843 45.6188L240.843 30.15C240.843 28.9564 241.797 28.0015 242.991 28.0015ZM255.357 32.2984L245.139 32.2984L245.139 43.4703L255.357 43.4703L255.357 32.2984Z" fill="#2E6276"/>
<path d="M228.525 4.12386e-06L271.995 1.94216e-07C273.189 8.63184e-08 274.144 0.954868 274.144 2.14845L274.144 45.5949C274.144 46.7885 273.189 47.7434 271.995 47.7434L228.525 47.7434C227.331 47.7434 226.377 46.7885 226.377 45.5949L226.377 2.14846C226.377 0.954873 227.331 4.23176e-06 228.525 4.12386e-06ZM269.847 4.29691L230.673 4.29691L230.673 43.4703L269.847 43.4703L269.847 4.29691Z" fill="#2E6276"/>
<path d="M185.031 45.5949L228.501 45.5949L228.501 2.14843L185.031 2.14844L185.031 45.5949Z" fill="white"/>
<path d="M228.501 2.14843L185.031 2.14844L185.031 45.5949L228.501 2.14843Z" fill="white"/>
<path d="M228.501 45.5949L185.031 2.14844L185.031 45.5949L228.501 45.5949Z" fill="white"/>
<path d="M206.778 23.8717L185.031 2.14847L185.031 45.5949L206.778 23.8717Z" fill="white"/>
<path d="M199.521 45.5949L214.035 45.5949L214.035 30.1261L199.521 30.1261L199.521 45.5949Z" fill="#82B4C9"/>
<path d="M214.035 45.5949L199.521 30.15L199.521 45.5949L214.035 45.5949Z" fill="#6499AF"/>
<path d="M199.521 28.0015L214.035 28.0015C215.228 28.0015 216.183 28.9564 216.183 30.15L216.183 45.6188C216.183 46.8124 215.228 47.7673 214.035 47.7673L199.521 47.7673C198.327 47.7673 197.372 46.8124 197.372 45.6188L197.372 30.15C197.372 28.9564 198.327 28.0015 199.521 28.0015ZM211.886 32.2985L201.669 32.2985L201.669 43.4704L211.886 43.4704L211.886 32.2985Z" fill="#2E6276"/>
<path d="M185.031 4.12386e-06L228.501 1.94216e-07C229.695 8.63184e-08 230.649 0.954868 230.649 2.14845L230.649 45.5949C230.649 46.7885 229.695 47.7434 228.501 47.7434L185.031 47.7434C183.837 47.7434 182.882 46.7885 182.882 45.5949L182.882 2.14846C182.882 0.954873 183.837 4.23176e-06 185.031 4.12386e-06ZM226.353 4.29691L187.179 4.29691L187.179 43.4703L226.353 43.4703L226.353 4.29691Z" fill="#2E6276"/>
<path d="M206.778 89.0653L250.248 89.0653L250.248 45.6188L206.778 45.6188L206.778 89.0653Z" fill="white"/>
<path d="M250.248 45.5949L206.778 45.5949L206.778 89.0653L250.248 45.5949Z" fill="white"/>
<path d="M250.248 89.0653L206.778 45.5949L206.778 89.0653L250.248 89.0653Z" fill="white"/>
<path d="M228.525 67.342L206.778 45.5949L206.778 89.0653L228.525 67.342Z" fill="white"/>
<path d="M221.268 89.0653L235.782 89.0653L235.782 73.5964L221.268 73.5964L221.268 89.0653Z" fill="#82B4C9"/>
<path d="M235.782 89.0653L221.268 73.5964L221.268 89.0653L235.782 89.0653Z" fill="#6499AF"/>
<path d="M221.268 71.4479L235.782 71.4479C236.975 71.4479 237.93 72.4028 237.93 73.5964L237.93 89.0652C237.93 90.2588 236.975 91.2137 235.782 91.2137L221.268 91.2137C220.074 91.2137 219.119 90.2588 219.119 89.0652L219.119 73.5964C219.119 72.4028 220.074 71.4479 221.268 71.4479ZM233.633 75.7448L223.416 75.7448L223.416 86.9168L233.633 86.9168L233.633 75.7448Z" fill="#2E6276"/>
<path d="M206.778 43.4703L250.248 43.4703C251.442 43.4703 252.396 44.4252 252.396 45.6188L252.396 89.0652C252.396 90.2588 251.442 91.2137 250.248 91.2137L206.778 91.2137C205.584 91.2137 204.629 90.2588 204.629 89.0652L204.629 45.6188C204.629 44.4252 205.584 43.4703 206.778 43.4703ZM248.1 47.7672L208.926 47.7672L208.926 86.9407L248.1 86.9407L248.1 47.7672Z" fill="#2E6276"/>
<path d="M276.496 293.064L297.716 293.064L297.716 308.853L276.496 308.853L276.496 293.064ZM295.311 295.468L278.9 295.468L278.9 306.449L295.311 306.449L295.311 295.468Z" fill="white"/>
<path d="M215.923 308.853L266.638 308.853L266.638 306.449L215.923 306.449L215.923 308.853Z" fill="white"/>
<path d="M221.934 302.161L266.638 302.161L266.638 299.756L221.934 299.756L221.934 302.161Z" fill="white"/>
<path d="M238.525 295.468L266.638 295.468L266.638 293.064L238.525 293.064L238.525 295.468Z" fill="white"/>
<path d="M231.252 295.468L232.514 295.468L232.514 293.064L231.252 293.064L231.252 295.468Z" fill="white"/>
<path d="M285.894 307.651L288.298 307.651L288.298 294.266L285.894 294.266L285.894 307.651Z" fill="white"/>
<path d="M2.2842 293.064L23.5038 293.064L23.5038 308.853L2.2842 308.853L2.2842 293.064ZM21.1194 295.468L4.70872 295.468L4.70872 306.449L21.1194 306.449L21.1194 295.468Z" fill="white"/>
<path d="M33.3422 308.853L84.0569 308.853L84.0569 306.449L33.3422 306.449L33.3422 308.853Z" fill="white"/>
<path d="M33.3422 302.161L78.0457 302.161L78.0457 299.756L33.3422 299.756L33.3422 302.161Z" fill="white"/>
<path d="M33.3623 295.468L61.4747 295.468L61.4747 293.064L33.3623 293.064L33.3623 295.468Z" fill="white"/>
<path d="M67.4859 295.468L68.7482 295.468L68.7482 293.064L67.4859 293.064L67.4859 295.468Z" fill="white"/>
<path d="M11.7018 307.651L14.1063 307.651L14.1063 294.266L11.7018 294.266L11.7018 307.651Z" fill="white"/>
<path d="M169.116 87.5199L197.629 87.5199L197.629 85.1154L169.116 85.1154L169.116 87.5199Z" fill="white"/>
<path d="M176.209 79.2044L197.629 79.2044L197.629 76.7999L176.209 76.8L176.209 79.2044Z" fill="white"/>
<path d="M169.116 70.8889L197.629 70.8889L197.629 68.4844L169.116 68.4844L169.116 70.8889Z" fill="white"/>
<path d="M176.209 62.5734L197.629 62.5734L197.629 60.1689L176.209 60.1689L176.209 62.5734Z" fill="white"/>
<path d="M102.391 87.5199L130.904 87.5199L130.904 85.1154L102.391 85.1154L102.391 87.5199Z" fill="white"/>
<path d="M102.371 79.2044L123.791 79.2044L123.791 76.7999L102.371 76.8L102.371 79.2044Z" fill="white"/>
<path d="M102.391 70.8889L130.904 70.8889L130.904 68.4844L102.391 68.4844L102.391 70.8889Z" fill="white"/>
<path d="M102.371 62.5734L123.791 62.5734L123.791 60.1689L102.371 60.1689L102.371 62.5734Z" fill="white"/>
<path d="M29.3169 155.797C29.3169 146.856 36.5689 139.597 45.5012 139.597L253.922 139.597C262.854 139.597 270.135 146.856 270.135 155.797L270.135 267.19C270.135 276.131 262.883 283.39 253.922 283.39L45.5012 283.39C36.5689 283.39 29.317 276.131 29.317 267.19L29.3169 155.797Z" fill="white"/>
<path d="M45.426 283.708L253.846 283.708C262.779 283.708 270.06 275.844 270.06 266.157L270.06 157.465C270.06 147.779 262.808 139.915 253.846 139.915L45.426 139.915C36.4937 139.915 29.2417 147.779 29.2417 157.465L29.2418 266.157C29.2418 275.844 36.4937 283.708 45.426 283.708Z" fill="#ADCFDC"/>
<path d="M45.5411 135.409L253.882 135.409C264.755 135.409 273.625 144.296 273.625 155.228L273.625 267.061C273.625 277.993 264.755 286.88 253.882 286.88L45.5411 286.88C34.6673 286.88 25.8268 277.993 25.8268 267.061L25.8268 155.228C25.8268 144.296 34.6673 135.409 45.5411 135.409ZM253.882 279.8C260.866 279.8 266.553 274.082 266.553 267.061L266.553 155.228C266.553 148.207 260.866 142.519 253.882 142.519L45.5411 142.519C38.5571 142.519 32.8992 148.237 32.8992 155.228L32.8992 267.061C32.8992 274.082 38.5866 279.77 45.5411 279.77L253.882 279.77L253.882 279.8Z" fill="#224A58"/>
<path d="M94.2332 211.159C94.2332 180.515 119.067 155.652 149.711 155.652C180.356 155.652 205.219 180.486 205.219 211.13C205.219 241.774 180.385 266.638 149.741 266.638C119.097 266.638 94.2627 241.804 94.2627 211.159L94.2332 211.159Z" fill="white"/>
<path d="M149.377 266.579L149.377 155.652C118.934 155.652 94.2332 180.479 94.2332 211.145C94.2332 241.81 118.904 266.638 149.377 266.638L149.377 266.579Z" fill="white"/>
<path d="M148.604 150.385C182.476 150.385 210.03 178.252 210.03 212.509C210.03 246.766 182.476 274.633 148.604 274.633C114.732 274.633 87.1778 246.766 87.1778 212.509C87.1778 178.252 114.732 150.385 148.604 150.385ZM148.604 266.638C178.11 266.638 202.091 242.384 202.091 212.543C202.091 182.702 178.11 158.448 148.604 158.448C119.098 158.448 95.1165 182.702 95.1165 212.543C95.1165 242.384 119.098 266.638 148.604 266.638Z" fill="#224A58"/>
<path d="M109.082 251.09C87.4219 229.43 87.4219 194.287 109.082 172.595C130.743 150.935 165.885 150.935 187.578 172.595C209.238 194.256 209.238 229.398 187.578 251.09C165.917 272.751 130.775 272.751 109.082 251.09Z" fill="#ADCFDC"/>
<path d="M188.466 251.034L109.22 172.404C87.3706 194.134 87.3706 229.369 109.253 251.066C131.135 272.764 166.617 272.764 188.466 251.034Z" fill="#3A7D95"/>
<path d="M141.699 235.226L157.055 235.226L157.055 187.761L141.699 187.761L141.699 235.226Z" fill="white"/>
<path d="M124.946 219.172L172.412 219.172L172.412 204.513L124.946 204.513L124.946 219.172Z" fill="white"/>
<path d="M90.8446 111.643L94.5415 118.046L91.1201 117.129C89.5299 116.659 87.8713 117.594 87.4012 119.184C86.9311 120.774 87.8655 122.433 89.4558 122.903C89.4831 122.91 89.5105 122.917 89.5652 122.932L102.913 126.494L103.683 123.62L103.697 123.565L106.502 113.154C106.907 111.532 105.921 109.903 104.308 109.515C102.741 109.124 101.144 110.046 100.699 111.599L99.7648 115.03L96.0779 108.645" fill="white"/>
<path d="M90.2434 110.602C90.8161 110.271 91.5551 110.469 91.8857 111.042L95.5826 117.445C95.8231 117.861 95.7832 118.393 95.4916 118.77C95.2 119.147 94.6987 119.32 94.2334 119.196L90.812 118.279C89.8339 117.988 88.8348 118.541 88.5607 119.509C88.2767 120.46 88.8304 121.459 89.7984 121.733L89.8805 121.755L102.061 125.019L102.508 123.349C102.516 123.322 102.53 123.267 102.52 123.25L105.325 112.838C105.564 111.891 104.976 110.911 104.01 110.682C103.062 110.443 102.108 110.994 101.841 111.934L100.924 115.356C100.8 115.821 100.399 116.168 99.9266 116.233C99.4547 116.297 98.974 116.065 98.7335 115.649L95.0466 109.263C94.716 108.69 94.914 107.951 95.4867 107.621C96.0593 107.29 96.7984 107.488 97.129 108.061L99.3732 111.948L99.5419 111.318C100.181 109.099 102.402 107.816 104.609 108.393C106.851 108.95 108.245 111.245 107.671 113.497L104.884 123.898C104.877 123.925 104.862 123.98 104.872 123.997L104.102 126.871C103.933 127.501 103.274 127.882 102.627 127.723L89.2798 124.161C89.2798 124.161 89.1977 124.139 89.143 124.124C86.9232 123.486 85.6254 121.158 86.2715 118.911C86.9103 116.691 89.2557 115.383 91.4855 116.039L92.0876 116.2L89.8435 112.313C89.5128 111.741 89.7109 111.002 90.2835 110.671L90.2434 110.602Z" fill="#2E6276"/>
<path d="M93.2679 103.858C93.8406 103.527 94.5796 103.725 94.9102 104.298C95.2408 104.871 95.0428 105.61 94.4702 105.94L89.2817 108.936C88.709 109.266 87.97 109.068 87.6394 108.496C87.3087 107.923 87.5068 107.184 88.0794 106.854L93.2679 103.858Z" fill="#2E6276"/>
<path d="M85.8753 103.036L91.0638 100.04C91.6365 99.7096 92.3755 99.9077 92.7061 100.48C93.0367 101.053 92.8387 101.792 92.2661 102.123L87.0776 105.118C86.5049 105.449 85.7659 105.251 85.4353 104.678C85.1046 104.106 85.3027 103.366 85.8753 103.036Z" fill="#2E6276"/>
<path d="M208.597 111.643L204.9 118.046L208.322 117.129C209.912 116.659 211.571 117.594 212.041 119.184C212.511 120.774 211.576 122.433 209.986 122.903C209.959 122.91 209.931 122.917 209.877 122.932L196.529 126.494L195.759 123.62L195.745 123.565L192.94 113.154C192.535 111.532 193.521 109.903 195.134 109.515C196.701 109.124 198.298 110.046 198.743 111.599L199.677 115.03L203.364 108.645" fill="white"/>
<path d="M209.199 110.602C208.626 110.271 207.887 110.469 207.556 111.042L203.859 117.445C203.619 117.861 203.659 118.393 203.95 118.77C204.242 119.147 204.743 119.32 205.209 119.196L208.63 118.279C209.608 117.988 210.607 118.541 210.881 119.509C211.165 120.46 210.612 121.459 209.644 121.733L209.561 121.755L197.381 125.019L196.934 123.349C196.926 123.322 196.912 123.267 196.922 123.25L194.117 112.838C193.878 111.891 194.466 110.911 195.432 110.682C196.38 110.443 197.334 110.994 197.601 111.934L198.518 115.356C198.642 115.821 199.043 116.168 199.515 116.233C199.987 116.297 200.468 116.065 200.708 115.649L204.395 109.263C204.726 108.69 204.528 107.951 203.955 107.621C203.383 107.29 202.644 107.488 202.313 108.061L200.069 111.948L199.9 111.318C199.261 109.099 197.04 107.816 194.833 108.393C192.591 108.95 191.197 111.245 191.771 113.497L194.558 123.898C194.565 123.925 194.58 123.98 194.57 123.997L195.34 126.871C195.508 127.501 196.168 127.882 196.815 127.723L210.162 124.161C210.162 124.161 210.244 124.139 210.299 124.124C212.519 123.486 213.817 121.158 213.17 118.911C212.532 116.691 210.186 115.383 207.956 116.039L207.354 116.2L209.599 112.313C209.929 111.741 209.731 111.002 209.158 110.671L209.199 110.602Z" fill="#2E6276"/>
<path d="M206.174 103.858C205.601 103.527 204.862 103.725 204.532 104.298C204.201 104.871 204.399 105.61 204.972 105.94L210.16 108.936C210.733 109.266 211.472 109.068 211.803 108.496C212.133 107.923 211.935 107.184 211.363 106.854L206.174 103.858Z" fill="#2E6276"/>
<path d="M213.567 103.036L208.378 100.04C207.806 99.7096 207.067 99.9077 206.736 100.48C206.405 101.053 206.603 101.792 207.176 102.123L212.364 105.118C212.937 105.449 213.676 105.251 214.007 104.678C214.337 104.106 214.139 103.366 213.567 103.036Z" fill="#2E6276"/>
</svg>
