<svg width="31" height="30" viewBox="0 0 31 30" fill="none" xmlns="http://www.w3.org/2000/svg">
<path d="M6.3689 0.00427246H1.07973C0.483411 0.00427246 0 0.484207 0 1.07624V6.32736C0 6.91939 0.483411 7.39933 1.07973 7.39933H6.3689C6.96522 7.39933 7.44863 6.91939 7.44863 6.32736V1.07624C7.44863 0.484207 6.96522 0.00427246 6.3689 0.00427246Z" fill="#82B4C9"/>
<path d="M6.3689 11.204H1.07973C0.483411 11.204 0 11.6839 0 12.2759V17.5271C0 18.1191 0.483411 18.599 1.07973 18.599H6.3689C6.96522 18.599 7.44863 18.1191 7.44863 17.5271V12.2759C7.44863 11.6839 6.96522 11.204 6.3689 11.204Z" fill="#DAE9EE"/>
<path d="M6.3689 22.4037H1.07973C0.483411 22.4037 0 22.8836 0 23.4756V28.7268C0 29.3188 0.483411 29.7987 1.07973 29.7987H6.3689C6.96522 29.7987 7.44863 29.3188 7.44863 28.7268V23.4756C7.44863 22.8836 6.96522 22.4037 6.3689 22.4037Z" fill="#3A7D95"/>
<path d="M17.6497 0.00427246H12.3605C11.7642 0.00427246 11.2808 0.484207 11.2808 1.07624V6.32736C11.2808 6.91939 11.7642 7.39933 12.3605 7.39933H17.6497C18.246 7.39933 18.7294 6.91939 18.7294 6.32736V1.07624C18.7294 0.484207 18.246 0.00427246 17.6497 0.00427246Z" fill="#DAE9EE"/>
<path d="M17.6497 11.204H12.3605C11.7642 11.204 11.2808 11.6839 11.2808 12.2759V17.5271C11.2808 18.1191 11.7642 18.599 12.3605 18.599H17.6497C18.246 18.599 18.7294 18.1191 18.7294 17.5271V12.2759C18.7294 11.6839 18.246 11.204 17.6497 11.204Z" fill="#82B4C9"/>
<path d="M17.6497 22.4037H12.3605C11.7642 22.4037 11.2808 22.8836 11.2808 23.4756V28.7268C11.2808 29.3188 11.7642 29.7987 12.3605 29.7987H17.6497C18.246 29.7987 18.7294 29.3188 18.7294 28.7268V23.4756C18.7294 22.8836 18.246 22.4037 17.6497 22.4037Z" fill="#DAE9EE"/>
<path d="M28.9304 0.00427246H23.6413C23.0449 0.00427246 22.5615 0.484207 22.5615 1.07624V6.32736C22.5615 6.91939 23.0449 7.39933 23.6413 7.39933H28.9304C29.5267 7.39933 30.0102 6.91939 30.0102 6.32736V1.07624C30.0102 0.484207 29.5267 0.00427246 28.9304 0.00427246Z" fill="#DAE9EE"/>
<path d="M28.9304 11.204H23.6413C23.0449 11.204 22.5615 11.6839 22.5615 12.2759V17.5271C22.5615 18.1191 23.0449 18.599 23.6413 18.599H28.9304C29.5267 18.599 30.0102 18.1191 30.0102 17.5271V12.2759C30.0102 11.6839 29.5267 11.204 28.9304 11.204Z" fill="#DAE9EE"/>
<path d="M28.9304 22.4037H23.6413C23.0449 22.4037 22.5615 22.8836 22.5615 23.4756V28.7268C22.5615 29.3188 23.0449 29.7987 23.6413 29.7987H28.9304C29.5267 29.7987 30.0102 29.3188 30.0102 28.7268V23.4756C30.0102 22.8836 29.5267 22.4037 28.9304 22.4037Z" fill="#82B4C9"/>
<path d="M14.0117 2.3405L2.61621 13.8171L4.83321 15.9869L16.2287 4.51027L14.0117 2.3405Z" fill="#DAE9EE"/>
<path d="M25.1742 13.8219L13.9043 25.0107L16.1056 27.1962L27.3755 16.0073L25.1742 13.8219Z" fill="#DAE9EE"/>
<path d="M16.2408 2.35373L13.9995 4.49878L25.1539 15.9865L27.3952 13.8414L16.2408 2.35373Z" fill="#DAE9EE"/>
</svg>
